<svg width="20" height="20" viewBox="0 0 20 20" fill="none" xmlns="http://www.w3.org/2000/svg">
<path d="M13.5815 19.6402C13.8118 19.8705 14.1251 20 14.452 20H16.4129C17.3287 20.0023 18.2079 19.6428 18.8563 19.0008C19.5047 18.3588 19.8691 17.487 19.8691 16.5778V7.86686C19.8691 7.13246 19.5412 6.43584 18.9737 5.96467M13.5815 19.6402L14.1119 19.1099C14.2009 19.1989 14.3232 19.25 14.452 19.25H16.4129H16.4148C17.1332 19.2518 17.8217 18.9697 18.3286 18.4678C18.8354 17.9661 19.1191 17.286 19.1191 16.5778V7.86686C19.1191 7.35918 18.8937 6.87594 18.5006 6.54665M13.5815 19.6402L14.1119 19.1099C14.023 19.021 13.9745 18.9017 13.9754 18.7788H13.9754V18.7733V15.7156C13.9754 15.1401 13.7451 14.5892 13.3368 14.184C12.9287 13.7789 12.3765 13.5523 11.8017 13.5523H8.92758C7.73225 13.5523 6.75392 14.5157 6.75392 15.7156V18.2317L6.731 18.2393L6.72708 18.7767C6.72521 19.0336 6.5134 19.25 6.24143 19.25H4.32531C2.82557 19.25 1.61914 18.0445 1.61914 16.5689V7.87648C1.63368 7.36102 1.88005 6.87723 2.29353 6.55907L2.29923 6.55468L2.30484 6.55019L8.82322 1.3325L8.83359 1.3242L8.84366 1.31553C9.69586 0.582373 10.9563 0.559556 11.8349 1.26175L11.8372 1.26356L18.5006 6.54665M13.5815 19.6402C13.3512 19.4099 13.223 19.0978 13.2254 18.7733V15.7156C13.2254 15.3408 13.0754 14.9813 12.8084 14.7163C12.5414 14.4512 12.1793 14.3023 11.8017 14.3023H8.92758C8.14131 14.3023 7.50392 14.9351 7.50392 15.7156L18.9737 5.96467M18.5006 6.54665L18.5078 6.55237L18.9737 5.96467M18.5006 6.54665C18.4986 6.545 18.4966 6.54335 18.4947 6.54171L18.9737 5.96467" stroke="white" stroke-width="1.5"/>
</svg>
