<svg width="19" height="20" viewBox="0 0 19 20" fill="none" xmlns="http://www.w3.org/2000/svg">
<path d="M12.7124 19.6402C12.9427 19.8705 13.256 20 13.5829 20H15.5438C16.4596 20.0023 17.3388 19.6428 17.9872 19.0008C18.6356 18.3588 19 17.487 19 16.5778V7.86686C19 7.13246 18.6721 6.43584 18.1046 5.96467M12.7124 19.6402L13.2427 19.1099C13.3318 19.1989 13.4541 19.25 13.5829 19.25H15.5438H15.5457C16.2641 19.2518 16.9526 18.9697 17.4595 18.4678C17.9662 17.9661 18.25 17.286 18.25 16.5778V7.86686C18.25 7.35918 18.0245 6.87594 17.6314 6.54665M12.7124 19.6402L13.2427 19.1099C13.1539 19.021 13.1054 18.9017 13.1063 18.7788H13.1063V18.7733V15.7156C13.1063 15.1401 12.8759 14.5892 12.4676 14.184C12.0596 13.7789 11.5073 13.5523 10.9326 13.5523H8.05844C6.86311 13.5523 5.88478 14.5157 5.88478 15.7156V18.2317L5.86186 18.2393L5.85794 18.7767C5.85607 19.0336 5.64426 19.25 5.37229 19.25H3.45617C1.95643 19.25 0.75 18.0445 0.75 16.5689V7.87648C0.764537 7.36102 1.01091 6.87723 1.42439 6.55907L1.43009 6.55468L1.4357 6.55019L7.95408 1.3325L7.96445 1.3242L7.97452 1.31553C8.82671 0.582373 10.0871 0.559556 10.9658 1.26175L10.968 1.26356L17.6314 6.54665M12.7124 19.6402C12.4821 19.4099 12.3539 19.0978 12.3563 18.7733V15.7156C12.3563 15.3408 12.2063 14.9813 11.9393 14.7163C11.6723 14.4512 11.3102 14.3023 10.9326 14.3023H8.05844C7.27217 14.3023 6.63478 14.9351 6.63478 15.7156L18.1046 5.96467M17.6314 6.54665L17.6386 6.55237L18.1046 5.96467M17.6314 6.54665C17.6295 6.545 17.6275 6.54335 17.6255 6.54171L18.1046 5.96467" stroke="#191A38" stroke-width="1.5"/>
</svg>
