<svg width="16" height="20" viewBox="0 0 16 20" fill="none" xmlns="http://www.w3.org/2000/svg">
<path d="M11.9823 20.0004H4.19724C2.04744 20.0004 0.304688 18.4014 0.304688 16.429V15.7147C0.304688 12.1643 3.44165 9.28613 7.31128 9.28613H8.86829C12.7379 9.28613 15.8749 12.1643 15.8749 15.7147V16.429C15.8749 18.4014 14.1321 20.0004 11.9823 20.0004ZM7.31127 10.7147C4.30156 10.7147 1.86171 12.9533 1.86171 15.7147L1.86171 16.429C1.86171 17.6125 2.90736 18.5719 4.19724 18.5719L11.9823 18.5718C13.2722 18.5719 14.3179 17.6125 14.3179 16.429V15.7147C14.3179 12.9533 11.878 10.7147 8.86829 10.7147L7.31127 10.7147Z" fill="#191A38"/>
<path d="M8.08982 8.57143C5.36819 8.57143 3.16187 6.65265 3.16187 4.28571C3.16187 1.91878 5.36819 0 8.08982 0C10.8115 0 13.0178 1.91878 13.0178 4.28571C13.0178 6.65265 10.8115 8.57143 8.08982 8.57143ZM8.08982 1.42857C6.2754 1.42857 4.80452 2.70776 4.80452 4.28571C4.80452 5.86367 6.2754 7.14285 8.08982 7.14285C9.90424 7.14285 11.3751 5.86367 11.3751 4.28571C11.3751 2.70776 9.90424 1.42857 8.08982 1.42857Z" fill="#191A38"/>
</svg>
