<svg width="375" height="396" viewBox="0 0 375 396" fill="none" xmlns="http://www.w3.org/2000/svg">
<g filter="url(#filter0_b_1_5619)">
<path d="M0 0L182.479 43.5605L375 0V395.529L182.479 349.114L0 395.529V0Z" fill="#FCFCFC"/>
</g>
<g opacity="0.1">
<ellipse cx="270.033" cy="282.157" rx="6.75638" ry="8.84233" fill="#3F3D56"/>
<path d="M275.379 244.328C276.326 242.685 276.817 240.819 276.801 238.923C276.801 234.03 273.776 230.081 270.045 230.081C266.313 230.081 263.292 234.039 263.292 238.923C263.273 240.818 263.759 242.684 264.701 244.328C262.822 247.684 262.822 251.777 264.701 255.134C262.822 258.492 262.822 262.585 264.701 265.943C263.759 267.587 263.273 269.452 263.292 271.347C263.292 276.241 266.317 280.19 270.045 280.19C273.773 280.19 276.801 276.232 276.801 271.347C276.82 269.452 276.334 267.587 275.391 265.943C277.271 262.585 277.271 258.492 275.391 255.134C277.271 251.777 277.271 247.684 275.391 244.328H275.379Z" fill="#3F3D56"/>
<ellipse cx="270.033" cy="228.118" rx="6.75638" ry="8.84233" fill="#3F3D56"/>
<ellipse cx="270.033" cy="217.309" rx="6.75638" ry="8.84233" fill="#3F3D56"/>
<path d="M295.321 143.346C296.243 142.171 297.083 140.933 297.835 139.642L280.095 136.728L299.294 136.871C303.013 128.773 303.234 119.501 299.906 111.234L274.147 124.588L297.906 107.136C291.837 96.6628 280.43 90.4521 268.34 91.0381C256.25 91.6241 245.498 98.9086 240.47 109.92C235.443 120.931 236.981 133.827 244.457 143.346C243.019 145.175 241.783 147.153 240.768 149.246L263.809 161.218L239.242 152.959C235.73 163.315 237.686 174.744 244.442 183.343C234.008 196.608 235.522 215.664 247.919 227.116C260.316 238.567 279.432 238.567 291.829 227.116C304.226 215.664 305.739 196.608 295.306 183.343C304.539 171.605 304.539 155.072 295.306 143.334L295.321 143.346Z" fill="#6C63FF"/>
<path opacity="0.1" d="M237.533 163.352C237.521 170.61 239.962 177.658 244.457 183.355C234.024 196.62 235.537 215.676 247.934 227.128C260.331 238.579 279.447 238.579 291.844 227.128C304.241 215.676 305.755 196.62 295.321 183.355C299.658 177.85 237.533 159.719 237.533 163.352Z" fill="black"/>
</g>
<g opacity="0.1">
<ellipse cx="80.5365" cy="276.158" rx="4.11072" ry="5.38308" fill="#3F3D56"/>
<path d="M83.8058 253.131C84.3797 252.13 84.6763 250.994 84.6653 249.84C84.6653 246.867 82.8302 244.457 80.5515 244.457C78.2729 244.457 76.4408 246.867 76.4408 249.84C76.4288 250.994 76.7244 252.13 77.2972 253.131C76.1556 255.176 76.1556 257.666 77.2972 259.71C76.1556 261.754 76.1556 264.245 77.2972 266.289C76.724 267.289 76.4283 268.424 76.4408 269.577C76.4408 272.553 78.2759 274.963 80.5515 274.963C82.8271 274.963 84.6653 272.553 84.6653 269.577C84.6768 268.424 84.3801 267.289 83.8058 266.289C84.951 264.246 84.951 261.754 83.8058 259.71C84.951 257.667 84.951 255.175 83.8058 253.131Z" fill="#3F3D56"/>
<ellipse cx="80.5365" cy="243.261" rx="4.11072" ry="5.38308" fill="#3F3D56"/>
<ellipse cx="80.5365" cy="236.682" rx="4.11072" ry="5.38308" fill="#3F3D56"/>
<path d="M65.1489 191.654C64.5875 190.939 64.0765 190.185 63.6196 189.4L74.4255 187.626L62.7387 187.714C60.4775 182.787 60.3415 177.146 62.3625 172.115L78.0316 180.254L63.5737 169.611C67.2697 163.239 74.2118 159.462 81.5689 159.82C88.926 160.178 95.4687 164.611 98.5287 171.311C101.589 178.011 100.655 185.859 96.1077 191.654C96.9829 192.765 97.7356 193.968 98.3527 195.241L84.3261 202.533L99.2825 197.514C101.417 203.82 100.222 210.778 96.1077 216.012C102.459 224.087 101.537 235.687 93.9902 242.658C86.4436 249.629 74.8069 249.629 67.2603 242.658C59.7137 235.687 58.7918 224.087 65.1428 216.012C59.5227 208.865 59.5227 198.801 65.1428 191.654H65.1489Z" fill="#6C63FF"/>
<path opacity="0.1" d="M100.322 203.833C100.329 208.251 98.8439 212.543 96.1078 216.012C102.459 224.087 101.537 235.687 93.9902 242.658C86.4436 249.629 74.8069 249.629 67.2603 242.658C59.7137 235.687 58.7918 224.087 65.1428 216.012C62.5032 212.675 100.322 201.622 100.322 203.833Z" fill="black"/>
</g>
<g opacity="0.1">
<ellipse cx="173.21" cy="279.025" rx="5.50237" ry="7.20293" fill="#3F3D56"/>
<path d="M177.566 248.207C178.332 246.867 178.728 245.346 178.713 243.802C178.713 239.826 176.266 236.6 173.207 236.6C170.148 236.6 167.702 239.826 167.702 243.802C167.685 245.347 168.083 246.867 168.852 248.207C167.319 250.942 167.319 254.277 168.852 257.013C167.319 259.746 167.319 263.081 168.852 265.815C168.083 267.154 167.685 268.675 167.702 270.219C167.702 274.196 170.167 277.422 173.207 277.422C176.247 277.422 178.713 274.196 178.713 270.219C178.728 268.675 178.332 267.155 177.566 265.815C179.095 263.08 179.095 259.747 177.566 257.013C179.095 254.276 179.095 250.943 177.566 248.207Z" fill="#3F3D56"/>
<ellipse cx="173.21" cy="235" rx="5.50237" ry="7.20293" fill="#3F3D56"/>
<ellipse cx="173.21" cy="226.194" rx="5.50237" ry="7.20293" fill="#3F3D56"/>
<path d="M152.623 165.94C151.871 164.984 151.187 163.976 150.574 162.925L165.032 160.551L149.397 160.667C146.365 154.07 146.182 146.516 148.892 139.78L169.874 150.663L150.522 136.44C155.45 127.876 164.754 122.787 174.624 123.256C184.494 123.726 193.272 129.676 197.365 138.669C201.458 147.663 200.178 158.19 194.049 165.94C195.22 167.431 196.226 169.043 197.052 170.748L178.285 180.499L198.297 173.77C201.153 182.209 199.555 191.52 194.049 198.523C202.547 209.329 201.314 224.853 191.215 234.181C181.116 243.509 165.544 243.509 155.445 234.181C145.346 224.853 144.112 209.329 152.611 198.523C145.091 188.959 145.091 175.492 152.611 165.928L152.623 165.94Z" fill="#6C63FF"/>
<path opacity="0.1" d="M199.689 182.239C199.698 188.152 197.711 193.894 194.049 198.536C202.547 209.342 201.314 224.865 191.215 234.193C181.116 243.521 165.544 243.521 155.445 234.193C145.346 224.865 144.112 209.342 152.611 198.536C149.078 194.052 199.689 179.279 199.689 182.239Z" fill="black"/>
</g>
<path d="M362.594 285.58C362.594 287.681 347.234 289.602 321.839 291.085C317.221 291.351 312.272 291.605 307.023 291.844C302.488 292.047 297.735 292.24 292.764 292.422C287.948 292.593 282.947 292.752 277.762 292.899C261.386 293.367 243.283 293.703 224.05 293.871C219.383 293.914 214.653 293.947 209.862 293.969C204.87 293.992 199.821 294.002 194.716 294C101.998 294 26.8398 290.235 26.8398 285.589C26.8398 280.943 101.998 277.178 194.716 277.178C234.633 277.178 271.29 277.878 300.102 279.04L303.252 279.169H303.27C339.563 280.707 362.594 283.023 362.594 285.58Z" fill="#3F3D56"/>
<path opacity="0.34" d="M362.594 285.58C362.594 287.681 347.234 289.602 321.839 291.085C317.221 291.351 312.272 291.605 307.023 291.844C302.488 292.047 297.735 292.24 292.764 292.422C287.948 292.593 282.947 292.752 277.762 292.899C261.386 293.367 243.283 293.703 224.05 293.871C219.383 293.914 214.653 293.947 209.862 293.969C204.87 293.992 199.821 294.002 194.716 294C101.998 294 26.8398 290.235 26.8398 285.589C26.8398 280.943 101.998 277.178 194.716 277.178C234.633 277.178 271.29 277.878 300.102 279.04L303.252 279.169H303.27C339.563 280.707 362.594 283.023 362.594 285.58Z" fill="#74C6B8"/>
<path d="M348.755 284.099C348.755 285.855 333.394 287.464 307.999 288.687C303.384 288.911 298.432 289.122 293.186 289.32C288.65 289.492 283.897 289.653 278.927 289.804C274.111 289.946 269.11 290.08 263.925 290.204C247.547 290.596 229.443 290.877 210.211 291.018C205.547 291.053 200.818 291.079 196.022 291.098C191.03 291.116 185.983 291.125 180.879 291.125C88.1613 291.125 13 287.978 13 284.09C13 280.203 88.1613 277.056 180.879 277.056C220.793 277.056 257.45 277.64 286.262 278.612L289.412 278.719H289.434C325.739 280.025 348.755 281.949 348.755 284.099Z" fill="#8A8A8A"/>
<path d="M56.3583 220.197L52.1436 207.293L153.076 206.188L157.212 218.964L56.3583 220.197Z" fill="#3F3D56"/>
<path opacity="0.15" d="M56.3583 220.197L52.1436 207.293L153.076 206.188L157.212 218.964L56.3583 220.197Z" fill="black"/>
<path d="M49.6297 220.197L45.415 207.293L146.348 206.188L150.483 218.964L49.6297 220.197Z" fill="#8A8A8A"/>
<path d="M221.934 200.368C211.499 200.368 203.274 196.226 197.261 187.941C191.248 179.656 188.241 169.62 188.241 157.833C188.241 145.965 191.149 135.949 196.964 127.785C202.78 119.621 210.983 115.543 221.574 115.551C232.805 115.551 241.267 119.852 246.96 128.455C252.653 137.058 255.5 147.014 255.502 158.325C255.502 169.554 252.556 179.37 246.663 187.773C240.77 196.176 232.527 200.374 221.934 200.368ZM222.24 191.049C229.106 191.049 234.237 188.056 237.634 182.072C241.031 176.087 242.73 168.543 242.73 159.438C242.73 149.304 240.991 141.006 237.515 134.545C234.038 128.083 228.706 124.851 221.519 124.849C207.857 124.849 201.026 135.701 201.026 157.404C201.026 179.836 208.095 191.051 222.234 191.049H222.24ZM225.678 280.295H210.584L309.4 117.212H324.21L225.678 280.295ZM313.098 281.968C302.505 281.968 294.247 277.788 288.324 269.428C282.4 261.067 279.426 251.03 279.402 239.316C279.402 227.528 282.289 217.552 288.064 209.388C293.838 201.223 302.062 197.145 312.734 197.153C323.886 197.153 332.289 201.455 337.943 210.058C343.597 218.66 346.425 228.616 346.427 239.924C346.427 251.08 343.5 260.878 337.646 269.317C331.792 277.757 323.607 281.974 313.092 281.968H313.098ZM313.276 272.41C320.108 272.41 325.212 269.468 328.587 263.586C331.962 257.703 333.649 250.189 333.649 241.044C333.649 231.257 331.941 223.048 328.526 216.419C325.11 209.79 319.789 206.471 312.563 206.461C298.822 206.461 291.951 217.312 291.951 239.016C291.947 261.28 299.053 272.412 313.27 272.41H313.276Z" fill="#3F3D56"/>
<path d="M221.934 200.368C211.499 200.368 203.274 196.226 197.261 187.941C191.248 179.656 188.241 169.62 188.241 157.833C188.241 145.965 191.149 135.949 196.964 127.785C202.78 119.621 210.983 115.543 221.574 115.551C232.805 115.551 241.267 119.852 246.96 128.455C252.653 137.058 255.5 147.014 255.502 158.325C255.502 169.554 252.556 179.37 246.663 187.773C240.77 196.176 232.527 200.374 221.934 200.368ZM222.24 191.049C229.106 191.049 234.237 188.056 237.634 182.072C241.031 176.087 242.73 168.543 242.73 159.438C242.73 149.304 240.991 141.006 237.515 134.545C234.038 128.083 228.706 124.851 221.519 124.849C207.857 124.849 201.026 135.701 201.026 157.404C201.026 179.836 208.095 191.051 222.234 191.049H222.24ZM225.678 280.295H210.584L309.4 117.212H324.21L225.678 280.295ZM313.098 281.968C302.505 281.968 294.247 277.788 288.324 269.428C282.4 261.067 279.426 251.03 279.402 239.316C279.402 227.528 282.289 217.552 288.064 209.388C293.838 201.223 302.062 197.145 312.734 197.153C323.886 197.153 332.289 201.455 337.943 210.058C343.597 218.66 346.425 228.616 346.427 239.924C346.427 251.08 343.5 260.878 337.646 269.317C331.792 277.757 323.607 281.974 313.092 281.968H313.098ZM313.276 272.41C320.108 272.41 325.212 269.468 328.587 263.586C331.962 257.703 333.649 250.189 333.649 241.044C333.649 231.257 331.941 223.048 328.526 216.419C325.11 209.79 319.789 206.471 312.563 206.461C298.822 206.461 291.951 217.312 291.951 239.016C291.947 261.28 299.053 272.412 313.27 272.41H313.276Z" fill="#3F3D56"/>
<path opacity="0.33" d="M221.934 200.368C211.499 200.368 203.274 196.226 197.261 187.941C191.248 179.656 188.241 169.62 188.241 157.833C188.241 145.965 191.149 135.949 196.964 127.785C202.78 119.621 210.983 115.543 221.574 115.551C232.805 115.551 241.267 119.852 246.96 128.455C252.653 137.058 255.5 147.014 255.502 158.325C255.502 169.554 252.556 179.37 246.663 187.773C240.77 196.176 232.527 200.374 221.934 200.368ZM222.24 191.049C229.106 191.049 234.237 188.056 237.634 182.072C241.031 176.087 242.73 168.543 242.73 159.438C242.73 149.304 240.991 141.006 237.515 134.545C234.038 128.083 228.706 124.851 221.519 124.849C207.857 124.849 201.026 135.701 201.026 157.404C201.026 179.836 208.095 191.051 222.234 191.049H222.24ZM225.678 280.295H210.584L309.4 117.212H324.21L225.678 280.295ZM313.098 281.968C302.505 281.968 294.247 277.788 288.324 269.428C282.4 261.067 279.426 251.03 279.402 239.316C279.402 227.528 282.289 217.552 288.064 209.388C293.838 201.223 302.062 197.145 312.734 197.153C323.886 197.153 332.289 201.455 337.943 210.058C343.597 218.66 346.425 228.616 346.427 239.924C346.427 251.08 343.5 260.878 337.646 269.317C331.792 277.757 323.607 281.974 313.092 281.968H313.098ZM313.276 272.41C320.108 272.41 325.212 269.468 328.587 263.586C331.962 257.703 333.649 250.189 333.649 241.044C333.649 231.257 331.941 223.048 328.526 216.419C325.11 209.79 319.789 206.471 312.563 206.461C298.822 206.461 291.951 217.312 291.951 239.016C291.947 261.28 299.053 272.412 313.27 272.41H313.276Z" fill="#74C6B8"/>
<path d="M212.452 200.368C202.016 200.368 193.792 196.226 187.779 187.941C181.765 179.656 178.759 169.62 178.759 157.833C178.759 145.965 181.666 135.949 187.482 127.785C193.297 119.621 201.5 115.543 212.091 115.551C223.322 115.551 231.784 119.852 237.477 128.455C243.17 137.058 246.018 147.014 246.02 158.325C246.02 169.554 243.073 179.37 237.181 187.773C231.288 196.176 223.045 200.374 212.452 200.368ZM212.758 191.049C219.623 191.049 224.755 188.056 228.152 182.072C231.549 176.087 233.247 168.543 233.247 159.438C233.247 149.304 231.509 141.006 228.032 134.545C224.556 128.083 219.224 124.851 212.036 124.849C198.374 124.849 191.544 135.701 191.544 157.404C191.544 179.836 198.613 191.051 212.752 191.049H212.758ZM216.196 280.295H201.102L299.918 117.212H314.728L216.196 280.295ZM303.616 281.968C293.023 281.968 284.765 277.788 278.841 269.428C272.918 261.067 269.944 251.03 269.919 239.316C269.919 227.528 272.807 217.552 278.581 209.388C284.356 201.223 292.579 197.145 303.252 197.153C314.403 197.153 322.806 201.455 328.461 210.058C334.115 218.66 336.943 228.616 336.945 239.924C336.945 251.08 334.018 260.878 328.164 269.317C322.31 277.757 314.125 281.974 303.61 281.968H303.616ZM303.793 272.41C310.626 272.41 315.73 269.468 319.104 263.586C322.479 257.703 324.166 250.189 324.166 241.044C324.166 231.257 322.459 223.048 319.043 216.419C315.628 209.79 310.305 206.471 303.074 206.461C289.333 206.461 282.463 217.312 282.463 239.016C282.463 261.28 289.571 272.412 303.787 272.41H303.793Z" fill="#8A8A8A"/>
<path d="M245.473 284.387C246.733 282.05 245.301 279.187 243.656 277.101C242.01 275.015 240.004 272.85 240.047 270.192C240.108 266.378 244.157 264.124 247.387 262.099C249.789 260.598 252.005 258.818 253.988 256.795C254.818 256.016 255.504 255.097 256.015 254.079C256.685 252.587 256.664 250.889 256.627 249.256C256.486 243.808 256.217 238.368 255.82 232.936" stroke="#3F3D56" stroke-width="4"/>
<path d="M261.974 232.636C261.88 230.61 260.761 228.772 259.004 227.76L257.67 230.397L257.71 227.204C257.074 227.018 256.412 226.938 255.75 226.968C252.466 227.122 249.929 229.908 250.083 233.192C250.237 236.475 253.023 239.013 256.307 238.859C259.59 238.705 262.127 235.919 261.974 232.636Z" fill="url(#paint0_linear_1_5619)"/>
<path d="M251.361 272.93C250.073 275.43 247.211 276.688 244.498 275.944C241.785 275.201 239.964 272.659 240.133 269.851C240.301 267.043 242.413 264.737 245.195 264.323C247.977 263.909 250.669 265.5 251.648 268.137L247.929 271.162L252.027 270.207C252.026 271.155 251.797 272.088 251.361 272.93Z" fill="url(#paint1_linear_1_5619)"/>
<path d="M248.421 261.365C245.137 261.518 242.35 258.981 242.197 255.697C242.15 254.765 242.327 253.835 242.711 252.984C243.43 251.375 244.826 250.166 246.522 249.684L246.488 252.131L247.837 249.464C251.121 249.31 253.907 251.847 254.061 255.131C254.215 258.415 251.677 261.202 248.393 261.355L248.421 261.365Z" fill="url(#paint2_linear_1_5619)"/>
<path d="M262.87 251.751C259.585 251.906 256.797 249.368 256.643 246.082C256.49 242.797 259.028 240.009 262.314 239.856C263.426 239.802 264.531 240.064 265.501 240.612L264.449 243.493L266.614 241.416C267.776 242.476 268.47 243.953 268.544 245.524C268.571 246.075 268.52 246.627 268.391 247.164C267.783 249.755 265.529 251.628 262.87 251.751Z" fill="url(#paint3_linear_1_5619)"/>
<path opacity="0.1" d="M261.172 234.223C259.799 234.373 258.466 234.801 257.086 234.887C255.707 234.973 254.193 234.642 253.321 233.569C252.85 232.994 252.618 232.263 252.22 231.633C251.844 231.046 251.33 230.562 250.721 230.223C249.678 232.282 249.92 234.759 251.342 236.578C252.764 238.397 255.11 239.229 257.36 238.714C259.611 238.198 261.36 236.428 261.848 234.171C261.622 234.184 261.399 234.199 261.172 234.223Z" fill="black"/>
<path opacity="0.1" d="M262.87 251.751C260.784 251.846 258.8 250.842 257.642 249.105C256.483 247.367 256.319 245.15 257.209 243.261C257.68 243.58 258.086 243.987 258.404 244.46C258.83 245.099 259.086 245.839 259.585 246.426C260.503 247.518 262.096 247.873 263.531 247.809C264.965 247.745 266.354 247.335 267.785 247.197C267.984 247.179 268.186 247.167 268.397 247.16C267.789 249.755 265.532 251.63 262.87 251.751Z" fill="black"/>
<path opacity="0.1" d="M248.421 261.365C245.137 261.519 242.35 258.981 242.197 255.697C242.15 254.765 242.327 253.835 242.711 252.984C243.201 253.311 243.627 253.726 243.968 254.208C244.43 254.859 244.72 255.612 245.261 256.214C246.265 257.331 247.953 257.725 249.473 257.688C250.993 257.652 252.366 257.297 253.832 257.184C253.088 259.577 250.925 261.249 248.421 261.365Z" fill="url(#paint4_linear_1_5619)"/>
<path opacity="0.1" d="M251.361 272.929C249.922 275.756 246.519 276.958 243.624 275.663C240.729 274.367 239.359 271.029 240.509 268.072C240.999 268.395 241.439 268.787 241.815 269.238C242.381 269.929 242.754 270.712 243.408 271.354C244.632 272.547 246.589 273.039 248.339 273.085C249.348 273.094 250.357 273.041 251.361 272.929Z" fill="black"/>
<path d="M337.536 284.081C338.796 281.744 337.365 278.882 335.719 276.796C334.074 274.71 332.067 272.544 332.11 269.886C332.171 266.072 336.221 263.818 339.451 261.793C341.853 260.293 344.068 258.513 346.051 256.49C346.881 255.711 347.568 254.791 348.079 253.774C348.749 252.281 348.727 250.584 348.691 248.95C348.55 243.502 348.281 238.062 347.883 232.63" stroke="#3F3D56" stroke-width="4"/>
<path d="M354.036 232.33C353.943 230.305 352.823 228.467 351.067 227.455L349.733 230.091L349.773 226.898C349.137 226.712 348.474 226.632 347.812 226.662C344.529 226.816 341.992 229.603 342.145 232.886C342.299 236.17 345.085 238.707 348.369 238.553C351.653 238.4 354.19 235.613 354.036 232.33Z" fill="url(#paint5_linear_1_5619)"/>
<path d="M343.423 272.624C342.136 275.125 339.273 276.382 336.561 275.639C333.848 274.895 332.027 272.353 332.195 269.545C332.364 266.738 334.475 264.432 337.258 264.017C340.04 263.603 342.731 265.194 343.71 267.831L339.991 270.856L344.09 269.902C344.088 270.849 343.86 271.783 343.423 272.624Z" fill="url(#paint6_linear_1_5619)"/>
<path d="M340.484 261.059C337.201 261.213 334.414 258.675 334.26 255.391C334.214 254.459 334.39 253.529 334.774 252.678C335.494 251.069 336.889 249.861 338.585 249.378L338.552 251.825L339.9 249.158H339.916C343.199 249.004 345.986 251.542 346.14 254.825C346.293 258.109 343.756 260.896 340.472 261.05L340.484 261.059Z" fill="url(#paint7_linear_1_5619)"/>
<path d="M354.933 251.446C351.647 251.601 348.86 249.062 348.706 245.777C348.552 242.491 351.091 239.704 354.376 239.55C355.489 239.496 356.594 239.758 357.563 240.306L356.511 243.187L358.676 241.111C359.839 242.17 360.533 243.648 360.606 245.219C360.634 245.769 360.582 246.321 360.454 246.858C359.845 249.449 357.592 251.322 354.933 251.446Z" fill="url(#paint8_linear_1_5619)"/>
<path opacity="0.1" d="M353.236 233.918C351.862 234.068 350.529 234.496 349.15 234.581C347.77 234.667 346.256 234.337 345.384 233.263C344.913 232.688 344.681 231.957 344.283 231.327C343.908 230.741 343.393 230.256 342.785 229.917C341.742 231.977 341.984 234.454 343.406 236.272C344.828 238.091 347.173 238.923 349.424 238.408C351.674 237.892 353.423 236.122 353.912 233.866C353.686 233.878 353.462 233.893 353.236 233.918Z" fill="black"/>
<path opacity="0.1" d="M354.932 251.446C352.846 251.541 350.863 250.537 349.704 248.799C348.545 247.062 348.381 244.844 349.271 242.955C349.743 243.275 350.149 243.682 350.467 244.154C350.892 244.793 351.149 245.533 351.648 246.121C352.565 247.213 354.159 247.567 355.593 247.503C357.028 247.439 358.416 247.029 359.848 246.891C360.046 246.873 360.248 246.861 360.459 246.855C359.852 249.449 357.594 251.324 354.932 251.446Z" fill="black"/>
<path opacity="0.1" d="M340.484 261.059C337.201 261.213 334.414 258.675 334.26 255.392C334.214 254.459 334.39 253.53 334.774 252.679C335.265 253.006 335.691 253.42 336.031 253.902C336.493 254.554 336.784 255.306 337.325 255.909C338.328 257.025 340.016 257.419 341.537 257.383C343.011 257.352 344.43 256.991 345.895 256.878C345.151 259.272 342.988 260.943 340.484 261.059Z" fill="black"/>
<path opacity="0.1" d="M343.423 272.624C341.985 275.451 338.582 276.653 335.687 275.357C332.792 274.061 331.421 270.723 332.571 267.767C333.061 268.089 333.501 268.482 333.877 268.932C334.443 269.623 334.816 270.406 335.471 271.048C336.694 272.241 338.652 272.734 340.401 272.78C341.411 272.788 342.42 272.736 343.423 272.624Z" fill="black"/>
<path d="M46.6226 280.105C45.3624 277.768 46.7939 274.905 48.4394 272.819C50.0849 270.733 52.0913 268.568 52.0485 265.91C51.9873 262.096 47.9378 259.842 44.7079 257.817C42.3058 256.316 40.0902 254.536 38.1075 252.513C37.2772 251.734 36.5908 250.815 36.0797 249.797C35.4098 248.305 35.4313 246.607 35.468 244.974C35.6087 239.526 35.8778 234.085 36.2754 228.653" stroke="#3F3D56" stroke-width="4"/>
<path d="M30.1218 228.353C30.2153 226.328 31.3349 224.49 33.0917 223.478L34.4253 226.115L34.3855 222.921C35.0216 222.736 35.684 222.656 36.346 222.686C39.6295 222.84 42.1666 225.626 42.0128 228.91C41.859 232.193 39.0727 234.73 35.7892 234.577C32.5057 234.423 29.9684 231.637 30.1218 228.353Z" fill="url(#paint9_linear_1_5619)"/>
<path d="M40.7351 268.647C42.0223 271.148 44.8851 272.406 47.5977 271.662C50.3103 270.918 52.1313 268.376 51.9629 265.569C51.7944 262.761 49.6826 260.455 46.9006 260.041C44.1185 259.627 41.4266 261.218 40.4476 263.854L44.1668 266.879L40.0684 265.925C40.0701 266.873 40.2987 267.806 40.7351 268.647Z" fill="url(#paint10_linear_1_5619)"/>
<path d="M43.674 257.083C46.9579 257.237 49.7447 254.7 49.8982 251.416C49.9445 250.483 49.7684 249.554 49.3843 248.703C48.6646 247.093 47.2692 245.885 45.5734 245.403L45.607 247.849L44.2582 245.182C40.9744 245.029 38.1877 247.566 38.034 250.85C37.8803 254.134 40.4177 256.92 43.7015 257.074L43.674 257.083Z" fill="url(#paint11_linear_1_5619)"/>
<path d="M29.2256 247.47C32.5108 247.625 35.2987 245.086 35.4524 241.801C35.6062 238.515 33.0676 235.727 29.7823 235.574C28.6749 235.523 27.5756 235.785 26.6105 236.33L27.6626 239.211L25.4819 237.144C24.3219 238.201 23.6279 239.675 23.5519 241.242C23.5248 241.793 23.5763 242.345 23.7049 242.882C24.313 245.473 26.5669 247.346 29.2256 247.47Z" fill="url(#paint12_linear_1_5619)"/>
<path opacity="0.1" d="M30.923 229.941C32.2963 230.091 33.6298 230.519 35.0093 230.605C36.3887 230.69 37.9027 230.36 38.7744 229.287C39.2454 228.711 39.4778 227.98 39.8754 227.35C40.2509 226.764 40.7658 226.28 41.3741 225.94C42.4172 228 42.1751 230.477 40.7531 232.296C39.331 234.114 36.9856 234.947 34.7352 234.431C32.4849 233.916 30.7356 232.145 30.2471 229.889C30.4734 229.901 30.6967 229.917 30.923 229.941Z" fill="black"/>
<path opacity="0.1" d="M29.226 247.47C31.3122 247.565 33.2959 246.561 34.4544 244.824C35.613 243.086 35.7773 240.869 34.8875 238.979C34.4159 239.299 34.01 239.706 33.6916 240.178C33.2664 240.818 33.0095 241.558 32.5109 242.145C31.5934 243.237 29.9999 243.592 28.5654 243.528C27.1309 243.463 25.7423 243.054 24.3109 242.916C24.1121 242.898 23.9103 242.885 23.6992 242.879C24.3068 245.474 26.5641 247.349 29.226 247.47Z" fill="black"/>
<path opacity="0.1" d="M43.6743 257.083C46.9582 257.237 49.745 254.699 49.8985 251.415C49.9448 250.483 49.7687 249.553 49.3846 248.702C48.8939 249.029 48.4677 249.444 48.1276 249.926C47.6657 250.577 47.3752 251.329 46.8338 251.932C45.8306 253.048 44.1423 253.443 42.6221 253.406C41.1479 253.376 39.7287 253.015 38.2637 252.902C39.0076 255.295 41.1706 256.966 43.6743 257.083Z" fill="black"/>
<path opacity="0.1" d="M40.7354 268.647C42.1738 271.474 45.5765 272.676 48.4717 271.38C51.3668 270.085 52.7371 266.746 51.5872 263.79C51.0971 264.112 50.6571 264.505 50.2811 264.955C49.7153 265.647 49.3422 266.43 48.6876 267.072C47.4642 268.265 45.5067 268.757 43.7572 268.803C42.7477 268.811 41.7386 268.759 40.7354 268.647Z" fill="black"/>
<path d="M218.995 251.443C219.006 249.939 218.305 248.519 217.104 247.614C217.031 244.809 215.031 242.518 212.459 242.163C212.054 240.224 210.645 238.647 208.764 238.028C208.539 237.957 208.309 237.903 208.076 237.866H208.008L207.889 237.851H207.788H207.687H207.556H207.476H207.259C204.635 237.851 202.451 239.857 202.001 242.503C200.304 242.111 198.747 242.619 198.469 243.692C198.397 243.977 198.413 244.277 198.514 244.552C198.802 245.384 199.738 246.179 201.007 246.574L201.172 246.623C201.255 246.647 201.337 246.665 201.42 246.684H201.475C200.506 248.75 201.328 251.214 203.344 252.284C203.306 252.305 203.269 252.328 203.234 252.354C203.077 252.498 202.952 252.673 202.867 252.868C202.56 253.406 202.322 253.981 202.157 254.578C202.035 255.089 202.013 255.624 201.851 256.129C201.573 257.046 200.857 257.851 200.775 258.826C200.738 259.261 200.808 259.771 200.499 260.068C200.423 260.134 200.341 260.195 200.255 260.249C200.038 260.397 199.855 260.588 199.717 260.811C199.626 260.996 199.505 261.163 199.359 261.307C199.08 261.518 198.622 261.496 198.484 261.821C198.346 262.145 198.701 262.527 198.618 262.882C198.551 263.169 198.236 263.301 198.007 263.494C197.75 263.772 197.571 264.113 197.487 264.482C196.562 264.66 195.605 264.417 194.878 263.818C195.001 264.133 195.091 264.46 195.147 264.794C194.783 264.405 194.183 264.292 193.74 264.09C193.168 263.828 192.657 263.449 192.241 262.977L193.043 262.867L189.495 257.484L188.449 257.269L189.388 259.071C189.232 259.146 189.119 259.288 189.082 259.456C189.031 259.656 189.019 259.864 189.045 260.068C189.095 260.551 189.176 261.03 189.287 261.503L189.559 262.769C189.582 262.888 189.612 263.005 189.648 263.121C189.293 263.108 188.938 263.148 188.595 263.24C187.892 262.98 187.16 262.806 186.415 262.723C186.251 262.694 186.083 262.703 185.922 262.747C185.74 262.831 185.583 262.96 185.464 263.121C184.852 263.828 184.309 264.592 183.842 265.402C181.937 268.718 179.392 271.611 177.01 274.609C175.364 275.278 173.706 275.915 172.045 276.545L168.476 277.906C167.763 278.178 167.023 278.456 166.265 278.407C165.922 278.386 165.506 278.334 165.314 278.624C165.22 278.769 165.147 278.925 165.096 279.089C164.971 279.089 164.846 279.12 164.729 279.126H164.708C164.482 278.563 164.286 277.961 163.852 277.551C163.674 277.578 163.522 277.693 163.448 277.857C163.362 278.016 163.31 278.19 163.212 278.337C163.02 278.618 162.686 278.756 162.448 278.995C162.209 279.233 162.059 279.606 161.802 279.839C161.443 280.1 161.021 280.264 160.579 280.313C159.917 280.469 159.278 280.711 158.68 281.035C158.459 281.17 158.223 281.279 157.976 281.359C157.705 281.411 157.427 281.42 157.153 281.386L155.263 281.249C155.095 281.227 154.924 281.234 154.758 281.27C154.358 281.417 154.107 281.815 154.147 282.24C154.193 282.654 154.409 283.03 154.743 283.28C155.071 283.52 155.434 283.709 155.82 283.839C157.462 284.476 159.156 284.972 160.882 285.323V285.705C162.078 286.308 163.399 286.622 164.739 286.623C164.837 286.63 164.936 286.612 165.026 286.571C165.15 286.478 165.236 286.343 165.268 286.191C165.669 284.992 165.922 283.748 166.023 282.487C166.259 282.472 166.491 282.413 166.705 282.313C167.357 282.136 168.002 282.582 168.672 282.656C169.498 282.744 170.265 282.264 171.045 281.967C171.159 281.925 171.272 281.888 171.385 281.851C171.162 282.139 170.9 282.394 170.605 282.607C170.281 282.839 169.917 283.01 169.599 283.252C169.334 283.494 169.051 283.713 168.751 283.91C168.54 284.008 168.323 284.092 168.1 284.16C167.777 284.278 167.469 284.433 167.182 284.622C166.925 284.774 166.707 284.983 166.546 285.234C166.381 285.472 166.351 285.779 166.467 286.044C166.583 286.31 166.828 286.496 167.115 286.537C167.371 286.582 167.631 286.59 167.889 286.558C168.91 286.482 169.929 286.387 170.947 286.295C171.379 286.267 171.807 286.205 172.229 286.112C172.452 286.057 172.673 285.983 172.896 285.925C173.277 285.825 173.667 285.766 174.061 285.751C174.175 285.742 174.29 285.753 174.401 285.785C174.639 285.861 174.807 286.09 175.049 286.152C175.206 286.167 175.364 286.145 175.511 286.087C176.256 285.925 177.017 285.844 177.78 285.846C178.114 285.827 178.505 285.763 178.661 285.454C178.851 285.072 178.533 284.644 178.407 284.231C178.343 283.968 178.309 283.7 178.303 283.429C178.245 282.763 178.054 282.115 177.741 281.524C177.574 281.248 177.434 280.957 177.321 280.655C178.783 280.099 180.182 279.39 181.493 278.539C182.246 278.071 183.023 277.566 183.873 277.395C184.864 277.196 185.886 277.459 186.861 277.741C189.185 278.413 191.471 279.21 193.709 280.129C194.78 280.567 195.85 281.032 196.945 281.353C197.265 281.785 197.653 282.163 198.092 282.472C198.826 282.946 199.723 283.084 200.585 283.151C201.75 283.258 202.92 283.302 204.09 283.283C204.983 283.267 205.904 283.206 206.702 282.799C206.897 282.699 207.081 282.578 207.25 282.438C207.861 282.549 208.488 282.221 208.969 281.802C209.604 281.262 210.062 280.542 210.284 279.738C210.565 278.634 210.348 277.346 211.027 276.444C211.207 276.202 211.443 276.006 211.62 275.762C211.839 275.434 211.946 275.045 211.926 274.651L211.957 274.605C212.111 274.251 212.213 273.876 212.263 273.492C212.343 273.192 212.445 272.899 212.569 272.614C212.913 271.761 213.213 270.89 213.468 270.005C213.645 269.418 213.784 268.821 213.884 268.216C213.957 267.733 214 267.247 214.04 266.76C214.089 265.999 214.237 265.247 214.48 264.524C215.084 262.799 215.425 260.993 215.493 259.166C215.493 259.129 215.493 259.095 215.493 259.059C217.333 258.857 218.717 257.288 218.689 255.437C218.69 254.899 218.577 254.367 218.358 253.875C218.78 253.134 219 252.295 218.995 251.443ZM201.698 272.458C201.75 272.645 201.812 272.831 201.873 273.018C201.591 272.74 201.313 272.452 201.029 272.177C201.142 272.211 201.255 272.247 201.365 272.287C201.482 272.334 201.595 272.391 201.701 272.458L201.698 272.458ZM200.328 271.541C198.658 270.091 196.725 268.965 195.015 267.565C195.933 268.027 196.851 268.562 197.768 269.076C198.837 269.687 199.917 270.272 201.01 270.831C200.831 271.103 200.603 271.34 200.337 271.529L200.328 271.541ZM201.041 267.889L201.12 267.806C201.12 268.011 201.12 268.204 201.12 268.378C200.97 268.329 200.814 268.28 200.671 268.225C200.803 268.118 200.927 268.001 201.044 267.877L201.041 267.889ZM186.338 271.816C187.026 271.038 187.624 270.186 188.121 269.274C188.782 270.434 189.859 271.269 190.776 272.238C189.302 272.03 187.825 271.868 186.341 271.804L186.338 271.816Z" fill="url(#paint13_linear_1_5619)"/>
<path d="M188.724 257.716L189.779 257.93L193.373 263.24L191.785 263.454L188.724 257.716Z" fill="#2F2E41"/>
<path d="M163.17 279.267C163.454 280.208 163.805 281.128 164.219 282.019C165.41 281.77 166.581 281.436 167.724 281.019C167.503 280.675 167.26 280.345 166.996 280.031C166.715 279.719 166.379 279.461 166.005 279.27C165.641 279.111 165.192 279.23 164.803 279.251C164.259 279.272 163.714 279.277 163.17 279.267Z" fill="#FBBEBE"/>
<path d="M166.011 280.686C165.417 280.499 165.054 279.9 164.812 279.322C164.57 278.744 164.374 278.114 163.916 277.688C163.738 277.716 163.587 277.831 163.512 277.994C163.423 278.147 163.371 278.322 163.27 278.468C163.081 278.744 162.744 278.878 162.503 279.114C162.261 279.349 162.111 279.707 161.851 279.943C161.49 280.202 161.069 280.364 160.628 280.414C159.961 280.565 159.317 280.803 158.713 281.123C158.489 281.253 158.251 281.355 158.004 281.429C157.73 281.481 157.451 281.49 157.175 281.457L155.269 281.319C155.1 281.298 154.928 281.306 154.761 281.344C154.362 281.483 154.109 281.877 154.15 282.298C154.201 282.71 154.423 283.082 154.761 283.322C155.093 283.559 155.458 283.745 155.844 283.873C157.504 284.497 159.213 284.985 160.952 285.332V285.708C162.161 286.306 163.491 286.62 164.839 286.626C164.944 286.635 165.05 286.617 165.145 286.574C165.269 286.483 165.356 286.35 165.39 286.2C165.847 284.864 166.114 283.47 166.182 282.059C166.217 281.702 166.19 281.342 166.103 280.995C165.999 280.652 166.353 280.796 166.023 280.661" fill="#74C6B8"/>
<path d="M202.543 273.504C196.894 273.847 191.315 272.189 185.657 272.012C184.954 271.969 184.249 272.014 183.558 272.146C182.838 272.339 182.141 272.61 181.479 272.954C178.447 274.364 175.309 275.532 172.174 276.701L168.577 278.04C167.856 278.306 167.112 278.578 166.345 278.533C166.002 278.511 165.583 278.459 165.387 278.747C164.803 279.612 165.082 280.888 165.467 281.86C165.592 282.166 165.803 282.518 166.14 282.555C166.378 282.538 166.611 282.479 166.828 282.38C167.483 282.206 168.137 282.646 168.81 282.717C169.645 282.805 170.419 282.331 171.205 282.041C172.508 281.561 173.933 281.576 175.303 281.346C177.603 280.964 179.732 279.897 181.726 278.679C182.485 278.218 183.256 277.722 184.124 277.554C185.124 277.358 186.155 277.615 187.137 277.893C189.478 278.556 191.782 279.341 194.04 280.245C195.216 280.756 196.421 281.195 197.649 281.561C200.327 282.266 203.159 282.101 205.736 281.09C206.654 280.732 207.62 280.102 207.672 279.126C207.703 278.569 207.271 278.08 206.984 277.597C206.797 277.291 206.614 276.985 206.412 276.694C205.439 275.275 204.259 273.4 202.543 273.504Z" fill="#2F2E41"/>
<path opacity="0.1" d="M202.543 273.504C196.894 273.847 191.315 272.189 185.657 272.012C184.954 271.969 184.249 272.014 183.558 272.146C182.838 272.339 182.141 272.61 181.479 272.954C178.447 274.364 175.309 275.532 172.174 276.701L168.577 278.04C167.856 278.306 167.112 278.578 166.345 278.533C166.002 278.511 165.583 278.459 165.387 278.747C164.803 279.612 165.082 280.888 165.467 281.86C165.592 282.166 165.803 282.518 166.14 282.555C166.378 282.538 166.611 282.479 166.828 282.38C167.483 282.206 168.137 282.646 168.81 282.717C169.645 282.805 170.419 282.331 171.205 282.041C172.508 281.561 173.933 281.576 175.303 281.346C177.603 280.964 179.732 279.897 181.726 278.679C182.485 278.218 183.256 277.722 184.124 277.554C185.124 277.358 186.155 277.615 187.137 277.893C189.478 278.556 191.782 279.341 194.04 280.245C195.216 280.756 196.421 281.195 197.649 281.561C200.327 282.266 203.159 282.101 205.736 281.09C206.654 280.732 207.62 280.102 207.672 279.126C207.703 278.569 207.271 278.08 206.984 277.597C206.797 277.291 206.614 276.985 206.412 276.694C205.439 275.275 204.259 273.4 202.543 273.504Z" fill="black"/>
<path d="M174.013 279.542C174.898 279.842 175.789 280.119 176.686 280.374C177.191 279.545 178.133 278.97 178.347 278.025C178.359 277.984 178.359 277.94 178.347 277.899C178.323 277.859 178.288 277.827 178.246 277.808C177.601 277.452 176.886 277.243 176.151 277.196C175.57 277.159 175.307 277.765 175.044 278.19C174.952 278.361 174.248 279.621 174.013 279.542Z" fill="#FBBEBE"/>
<path d="M175.258 278.936C174.724 278.847 174.252 278.538 173.958 278.083C173.832 277.866 173.701 277.572 173.45 277.587C173.199 277.603 173.114 277.878 173.062 278.107C172.892 278.964 172.648 279.805 172.331 280.618C172.011 281.435 171.47 282.146 170.768 282.671C170.44 282.897 170.076 283.068 169.755 283.307C169.488 283.546 169.201 283.762 168.899 283.955C168.686 284.053 168.466 284.134 168.241 284.2C167.912 284.315 167.597 284.468 167.302 284.656C167.044 284.807 166.825 285.016 166.663 285.267C166.504 285.526 166.484 285.847 166.608 286.124C166.741 286.348 166.964 286.505 167.22 286.555C167.478 286.598 167.74 286.604 168 286.574C169.03 286.497 170.058 286.405 171.086 286.314C171.521 286.287 171.953 286.227 172.379 286.136C172.606 286.081 172.826 286.008 173.049 285.95C173.435 285.851 173.829 285.794 174.227 285.778C174.342 285.77 174.458 285.781 174.57 285.812C174.808 285.888 174.976 286.118 175.221 286.173C175.379 286.189 175.538 286.168 175.686 286.112C176.438 285.953 177.205 285.873 177.974 285.873C178.31 285.855 178.708 285.79 178.861 285.488C179.053 285.112 178.735 284.689 178.607 284.286C178.543 284.027 178.507 283.763 178.5 283.497C178.442 282.839 178.249 282.201 177.934 281.622C177.671 281.138 177.322 280.606 177.497 280.092C177.59 279.932 177.65 279.754 177.671 279.569C177.628 278.741 175.723 279.046 175.258 278.936Z" fill="#74C6B8"/>
<path d="M194.074 264.445C193.073 264.003 192.271 263.207 191.823 262.209C191.731 261.995 191.652 261.772 191.563 261.555C191.265 260.837 190.804 260.198 190.217 259.689C190.09 259.549 189.908 259.472 189.719 259.478C189.535 259.533 189.394 259.682 189.352 259.869C189.299 260.069 189.286 260.277 189.312 260.481C189.364 260.956 189.446 261.427 189.557 261.891L189.832 263.139C189.866 263.331 189.924 263.518 190.003 263.696C190.121 263.905 190.276 264.091 190.462 264.243C190.713 264.476 190.966 264.699 191.223 264.916C191.365 265.044 191.52 265.157 191.685 265.252C191.957 265.381 192.247 265.466 192.545 265.503C193.667 265.711 194.808 266.011 195.753 266.727C195.753 266.727 195.753 265.892 195.732 265.809C195.72 265.567 195.637 265.334 195.493 265.139C195.138 264.757 194.527 264.644 194.074 264.445Z" fill="#FBBEBE"/>
<path opacity="0.1" d="M194.074 264.445C193.073 264.003 192.271 263.207 191.823 262.209C191.731 261.995 191.652 261.772 191.563 261.555C191.265 260.837 190.804 260.198 190.217 259.689C190.09 259.549 189.908 259.472 189.719 259.478C189.535 259.533 189.394 259.682 189.352 259.869C189.299 260.069 189.286 260.277 189.312 260.481C189.364 260.956 189.446 261.427 189.557 261.891L189.832 263.139C189.866 263.331 189.924 263.518 190.003 263.696C190.121 263.905 190.276 264.091 190.462 264.243C190.713 264.476 190.966 264.699 191.223 264.916C191.365 265.044 191.52 265.157 191.685 265.252C191.957 265.381 192.247 265.466 192.545 265.503C193.667 265.711 194.808 266.011 195.753 266.727C195.753 266.727 195.753 265.892 195.732 265.809C195.72 265.567 195.637 265.334 195.493 265.139C195.138 264.757 194.527 264.644 194.074 264.445Z" fill="black"/>
<ellipse cx="205.573" cy="253.519" rx="1.3733" ry="1.38247" fill="#2F2E41"/>
<path d="M204.724 252.685C204.355 252.601 203.968 252.656 203.638 252.841C203.479 252.981 203.353 253.154 203.268 253.348C202.959 253.877 202.718 254.442 202.552 255.031C202.43 255.535 202.408 256.061 202.246 256.56C201.965 257.478 201.243 258.257 201.16 259.215C201.124 259.643 201.194 260.148 200.882 260.438C200.805 260.503 200.722 260.561 200.634 260.612C200.417 260.758 200.233 260.948 200.093 261.169C200 261.368 199.87 261.547 199.711 261.698C199.429 261.906 198.967 261.885 198.83 262.206C198.692 262.527 199.047 262.9 198.964 263.249C198.897 263.533 198.579 263.665 198.353 263.861C198.095 264.134 197.914 264.471 197.83 264.836C196.9 265.011 195.94 264.771 195.202 264.179C195.585 265.124 195.594 266.167 195.609 267.185C195.653 267.511 195.566 267.841 195.367 268.103C196.462 268.127 197.527 268.409 198.594 268.663C199.051 268.816 199.545 268.816 200.001 268.663C200.245 268.531 200.464 268.357 200.647 268.149C201.228 267.559 201.836 266.925 201.977 266.103C202.014 265.64 202.022 265.175 202.001 264.711C202.058 264.138 202.176 263.573 202.353 263.026C202.66 261.889 202.865 260.727 202.965 259.554C203.029 258.829 203.653 258.248 203.983 257.6C204.595 256.376 205.237 255.107 205.286 253.737C205.329 253.29 205.176 252.743 204.724 252.685Z" fill="#2F2E41"/>
<path opacity="0.1" d="M204.724 252.685C204.355 252.601 203.968 252.656 203.638 252.841C203.479 252.981 203.353 253.154 203.268 253.348C202.959 253.877 202.718 254.442 202.552 255.031C202.43 255.535 202.408 256.061 202.246 256.56C201.965 257.478 201.243 258.257 201.16 259.215C201.124 259.643 201.194 260.148 200.882 260.438C200.805 260.503 200.722 260.561 200.634 260.612C200.417 260.758 200.233 260.948 200.093 261.169C200 261.368 199.87 261.547 199.711 261.698C199.429 261.906 198.967 261.885 198.83 262.206C198.692 262.527 199.047 262.9 198.964 263.249C198.897 263.533 198.579 263.665 198.353 263.861C198.095 264.134 197.914 264.471 197.83 264.836C196.9 265.011 195.94 264.771 195.202 264.179C195.585 265.124 195.594 266.167 195.609 267.185C195.653 267.511 195.566 267.841 195.367 268.103C196.462 268.127 197.527 268.409 198.594 268.663C199.051 268.816 199.545 268.816 200.001 268.663C200.245 268.531 200.464 268.357 200.647 268.149C201.228 267.559 201.836 266.925 201.977 266.103C202.014 265.64 202.022 265.175 202.001 264.711C202.058 264.138 202.176 263.573 202.353 263.026C202.66 261.889 202.865 260.727 202.965 259.554C203.029 258.829 203.653 258.248 203.983 257.6C204.595 256.376 205.237 255.107 205.286 253.737C205.329 253.29 205.176 252.743 204.724 252.685Z" fill="black"/>
<path d="M203.439 274.694C202.261 274.135 201.402 273.092 200.451 272.199C198.634 270.492 196.413 269.287 194.505 267.687C193.241 266.629 192.11 265.396 190.718 264.509C189.494 263.728 188.106 263.242 186.662 263.087C186.498 263.058 186.328 263.067 186.167 263.112C185.985 263.193 185.826 263.319 185.705 263.479C185.089 264.174 184.541 264.926 184.069 265.727C181.649 269.831 178.215 273.284 175.367 277.105C175.178 277.291 175.163 277.592 175.334 277.796L175.912 278.93C176.236 279.564 176.756 280.304 177.441 280.178C177.755 280.088 178.037 279.908 178.251 279.662L180.851 277.175L183.576 274.569C185.173 273.04 186.797 271.48 187.84 269.528C188.654 270.938 190.097 271.862 191.088 273.156C191.464 273.645 191.77 274.187 192.107 274.707C192.648 275.542 193.26 276.325 193.872 277.105L197.001 281.096C197.395 281.664 197.885 282.161 198.447 282.564C199.187 283.032 200.09 283.157 200.961 283.234C202.136 283.341 203.315 283.384 204.494 283.362C205.393 283.347 206.329 283.289 207.124 282.888C207.92 282.488 208.595 281.665 208.553 280.769C208.504 280.299 208.35 279.846 208.103 279.444C206.999 277.395 205.537 275.682 203.439 274.694Z" fill="#2F2E41"/>
<ellipse cx="206.418" cy="254.477" rx="1.05521" ry="1.06132" fill="#E8E8F0"/>
<path d="M206.185 253.679C206.423 254.153 206.465 254.703 206.301 255.208C206.138 255.705 205.91 256.178 205.622 256.615C205.375 257.066 205.078 257.489 204.738 257.875C206.369 257.955 207.95 257.315 209.387 256.539C210.546 255.927 211.703 255.147 212.32 253.982C211.949 254.07 211.557 253.998 211.241 253.783C210.93 253.566 210.651 253.307 210.412 253.012L209.595 252.094C209.402 251.893 209.233 251.67 209.091 251.431C208.912 251.105 208.836 250.733 208.873 250.363C208.548 250.704 208.185 251.005 207.791 251.263C207.207 251.645 206.567 251.92 205.977 252.296C205.769 252.431 205.307 252.648 205.426 252.908C205.546 253.168 206.02 253.385 206.185 253.679Z" fill="#FBBEBE"/>
<path opacity="0.1" d="M206.185 253.679C206.423 254.153 206.465 254.703 206.301 255.208C206.138 255.705 205.91 256.178 205.622 256.615C205.375 257.066 205.078 257.489 204.738 257.875C206.369 257.955 207.95 257.315 209.387 256.539C210.546 255.927 211.703 255.147 212.32 253.982C211.949 254.07 211.557 253.998 211.241 253.783C210.93 253.566 210.651 253.307 210.412 253.012L209.595 252.094C209.402 251.893 209.233 251.67 209.091 251.431C208.912 251.105 208.836 250.733 208.873 250.363C208.548 250.704 208.185 251.005 207.791 251.263C207.207 251.645 206.567 251.92 205.977 252.296C205.769 252.431 205.307 252.648 205.426 252.908C205.546 253.168 206.02 253.385 206.185 253.679Z" fill="black"/>
<path d="M206.206 253.837C205.869 254.315 205.869 254.953 206.206 255.431C206.252 255.489 206.427 255.853 206.512 255.856C206.584 255.85 206.651 255.816 206.699 255.761C207.068 255.375 207.414 254.967 207.733 254.538C208.055 254.103 208.521 253.798 209.048 253.675C209.687 253.574 210.302 253.914 210.862 254.238C211.102 254.358 211.312 254.531 211.473 254.746C211.591 254.959 211.661 255.194 211.678 255.437C211.839 256.895 211.9 258.363 211.862 259.829C211.892 260.886 211.822 261.944 211.654 262.989C211.55 263.527 211.394 264.053 211.32 264.597C211.267 265.077 211.245 265.559 211.256 266.041V268.06C211.243 268.43 211.269 268.8 211.336 269.164C211.462 269.598 211.61 270.026 211.779 270.445C211.928 270.945 212.03 271.457 212.085 271.975L212.36 274.064C212.449 274.724 212.513 275.443 212.113 275.972C211.935 276.214 211.697 276.404 211.501 276.642C210.813 277.517 211.042 278.786 210.736 279.872C210.51 280.669 210.047 281.378 209.409 281.906C208.923 282.319 208.292 282.646 207.662 282.518C206.815 282.359 206.304 281.475 206.072 280.64C205.839 279.805 205.766 278.893 205.255 278.193C204.845 277.615 204.212 277.254 203.64 276.841C203.068 276.428 202.506 275.899 202.38 275.202C202.325 274.896 202.359 274.59 202.328 274.284C202.236 273.49 201.717 272.81 200.976 272.51C200.542 272.342 200.004 272.281 199.753 271.898C200.376 271.507 200.829 270.897 201.025 270.189C201.215 269.49 201.318 268.771 201.331 268.048L201.478 265.619C201.542 264.533 201.573 263.457 202.05 262.481C202.264 262.047 202.53 261.637 202.75 261.205C203.045 260.6 203.297 259.975 203.503 259.334C203.848 258.34 204.197 257.343 204.506 256.336C204.63 255.849 204.815 255.379 205.056 254.939C205.341 254.48 205.717 253.929 206.206 253.837Z" fill="#E8E8F0"/>
<path d="M200.814 269.617L201.457 269.639L201.594 268.669C201.613 268.475 201.658 268.285 201.729 268.103C201.835 267.912 201.959 267.731 202.099 267.562C202.732 266.669 202.686 265.482 202.842 264.396C203.05 262.95 203.656 261.592 204.255 260.258L205.503 257.478C205.614 257.249 205.703 257.011 205.769 256.765C205.824 256.494 205.849 256.219 205.846 255.942C205.846 255.514 205.986 253.951 205.995 253.52C205.995 253.361 205.647 253.45 205.573 253.309C205.417 253.003 205.203 253.835 204.91 254.019C204.633 254.23 204.431 254.525 204.335 254.86C204.065 255.56 203.9 256.297 203.65 257.001C203.43 257.721 203.028 258.373 202.484 258.894C202.23 259.12 201.934 259.298 201.692 259.536C200.915 260.304 200.842 261.515 200.814 262.595C200.796 263.265 200.67 269.617 200.814 269.617Z" fill="#2F2E41"/>
<path d="M210.067 252.678C209.455 252.923 209.1 253.596 208.926 254.25C208.751 254.905 208.678 255.596 208.342 256.177C207.559 257.542 205.561 257.939 205.008 259.413C204.867 259.911 204.792 260.425 204.784 260.943C204.687 261.998 204.338 263.019 204.234 264.075C204.18 264.895 204.199 265.719 204.292 266.537L204.992 274.865C205.128 276.092 205.057 277.333 204.781 278.536C205.5 278.639 206.232 278.518 206.88 278.19C207.537 277.884 208.137 277.48 208.767 277.132C209.852 276.52 211.051 276.107 212 275.296C212.172 275.162 212.32 275 212.437 274.816C212.589 274.466 212.692 274.097 212.743 273.718C212.823 273.424 212.926 273.135 213.049 272.856C213.4 272.016 213.706 271.159 213.966 270.287C214.144 269.708 214.284 269.118 214.385 268.522C214.462 268.048 214.502 267.567 214.544 267.09C214.593 266.34 214.742 265.599 214.988 264.888C215.595 263.192 215.938 261.413 216.006 259.612C216.027 259.352 216.01 259.09 215.954 258.835C215.849 258.526 215.707 258.23 215.532 257.954C215.242 257.407 215.067 256.804 214.792 256.251C214.18 254.997 213.082 254.045 211.935 253.247C211.348 252.859 210.703 252.437 210.067 252.678Z" fill="#2F2E41"/>
<path d="M195.465 266.268C194.969 266.008 194.519 265.667 194.135 265.259C193.961 265.054 193.829 264.825 193.639 264.623C193.19 264.144 192.607 263.811 191.967 263.668C191.33 263.528 190.679 263.466 190.027 263.482C189.592 263.452 189.155 263.505 188.74 263.638C188.316 263.777 187.992 264.123 187.883 264.555C187.788 265.075 188.128 265.58 188.535 265.91C188.913 266.219 189.358 266.436 189.835 266.543C190.223 266.611 190.615 266.657 191.009 266.681C193.321 266.923 195.386 268.18 197.411 269.327C199.191 270.332 201.006 271.273 202.855 272.15C202.928 271.596 202.959 271.038 202.947 270.48C202.947 270.064 202.916 269.428 202.522 269.183C202.063 268.896 201.298 268.831 200.79 268.66C199.598 268.271 198.434 267.801 197.307 267.253C196.667 266.944 196.056 266.617 195.465 266.268Z" fill="#FBBEBE"/>
<ellipse cx="205.574" cy="249.06" rx="4.11989" ry="4.14436" fill="#FBBEBE"/>
<path d="M211.244 257.376C210.916 257.837 210.648 258.338 210.446 258.866C209.935 259.915 209.137 260.814 208.739 261.925C208.317 263.078 208.332 264.451 207.516 265.359C207.351 265.497 207.228 265.677 207.158 265.879C207.153 266.006 207.138 266.131 207.115 266.255C206.999 266.586 206.457 266.601 206.356 266.938C206.329 267.035 206.356 267.142 206.307 267.243C206.225 267.461 205.94 267.491 205.748 267.623C205.347 267.895 205.442 268.525 205.136 268.916C204.883 269.212 204.491 269.35 204.108 269.277C203.733 269.198 203.373 269.063 203.038 268.877C202.92 268.81 202.79 268.77 202.655 268.757C202.496 268.761 202.341 268.813 202.212 268.907C201.45 269.39 201.093 270.351 201.099 271.256C201.152 272.162 201.367 273.05 201.732 273.88C201.775 274.024 201.847 274.157 201.943 274.272C202.194 274.538 202.634 274.495 202.971 274.345C203.286 274.159 203.621 274.009 203.971 273.899C204.607 273.782 205.231 274.223 205.876 274.186C206.348 274.115 206.793 273.918 207.164 273.617C207.819 273.22 208.406 272.719 208.901 272.134C209.182 271.764 209.391 271.342 209.638 270.947C209.955 270.463 210.302 269.999 210.678 269.559L213.055 266.65C213.293 266.375 213.507 266.079 213.694 265.766C213.908 265.343 214.075 264.898 214.192 264.439C214.447 263.672 214.612 262.879 214.685 262.074C214.697 261.408 214.638 260.743 214.511 260.089C214.431 259.439 214.259 258.804 214 258.202C213.471 257.132 212.214 256.245 211.244 257.376Z" fill="#2F2E41"/>
<path d="M219.521 251.978C219.527 250.487 218.817 249.084 217.612 248.206C217.575 245.512 215.594 243.241 212.929 242.839C212.415 240.288 210.14 238.477 207.538 238.547C204.937 238.617 202.763 240.548 202.387 243.123C200.674 242.738 199.108 243.239 198.823 244.295C198.517 245.399 199.741 246.689 201.552 247.179C202.119 247.339 202.71 247.398 203.298 247.353C204.149 248.603 205.489 249.436 206.987 249.647C207.43 251.682 208.989 253.29 211.009 253.798C211.283 254.46 211.708 255.048 212.25 255.517C212.25 255.645 212.229 255.777 212.229 255.911C212.175 257.192 212.828 258.399 213.929 259.055C215.03 259.711 216.402 259.711 217.503 259.055C218.604 258.399 219.256 257.192 219.203 255.911C219.203 255.382 219.089 254.861 218.869 254.381C219.299 253.653 219.524 252.823 219.521 251.978Z" fill="#74C6B8"/>
<path opacity="0.1" d="M199.986 244.506C200.27 243.451 201.821 242.949 203.549 243.335C203.964 240.719 206.202 238.783 208.85 238.747C208.969 238.747 209.088 238.747 209.205 238.747C208.709 238.596 208.193 238.519 207.675 238.521C205.028 238.556 202.79 240.493 202.375 243.108C200.662 242.723 199.096 243.225 198.811 244.28C198.506 245.384 199.729 246.675 201.54 247.164C201.877 247.257 202.222 247.317 202.571 247.342C200.852 246.84 199.696 245.586 199.986 244.506Z" fill="black"/>
<path opacity="0.1" d="M213.391 256.126C213.391 255.991 213.391 255.859 213.413 255.728C212.87 255.261 212.445 254.673 212.171 254.012C210.153 253.5 208.596 251.892 208.149 249.859C206.651 249.649 205.311 248.816 204.46 247.565C204.118 247.592 203.773 247.582 203.433 247.537C204.287 248.688 205.567 249.449 206.987 249.648C207.43 251.682 208.989 253.291 211.009 253.798C211.283 254.46 211.708 255.049 212.25 255.517C212.25 255.645 212.229 255.777 212.229 255.911C212.197 257.863 213.746 259.475 215.698 259.521C214.296 258.98 213.377 257.627 213.391 256.126Z" fill="black"/>
<ellipse cx="207.589" cy="249.691" rx="0.636183" ry="0.847224" transform="rotate(-37.2201 207.589 249.691)" fill="#FBBEBE"/>
<path d="M108.978 271.201L113.052 268.807C112.501 267.865 111.797 267.023 110.969 266.314L103.286 268.703L109.305 265.164C106.272 263.503 102.589 263.566 99.6143 265.328C96.6399 267.091 94.8161 270.292 94.8164 273.749C94.8164 279.154 99.1993 279.34 104.604 279.34C110.008 279.34 114.391 279.154 114.391 273.749C114.395 272.379 114.108 271.024 113.55 269.773L108.978 271.201Z" fill="url(#paint14_linear_1_5619)"/>
<path opacity="0.1" d="M110.014 276.456C109.581 276.021 109.096 275.64 108.571 275.321C107.834 274.829 107.066 274.327 106.194 274.162C105.43 274.015 104.641 274.141 103.861 274.095C102.506 274.012 101.232 273.428 100.285 272.455C99.7285 271.88 99.2911 271.174 98.6213 270.733C97.8727 270.289 96.9893 270.127 96.1316 270.278C95.883 270.312 95.6369 270.362 95.3945 270.428C95.0111 271.493 94.8155 272.617 94.8164 273.749C94.8164 279.154 99.1993 279.34 104.604 279.34C107.228 279.34 109.608 279.297 111.366 278.634L111.061 278.086C110.783 277.5 110.431 276.953 110.014 276.456Z" fill="black"/>
<defs>
<filter id="filter0_b_1_5619" x="-10" y="-10" width="395" height="415.529" filterUnits="userSpaceOnUse" color-interpolation-filters="sRGB">
<feFlood flood-opacity="0" result="BackgroundImageFix"/>
<feGaussianBlur in="BackgroundImageFix" stdDeviation="5"/>
<feComposite in2="SourceAlpha" operator="in" result="effect1_backgroundBlur_1_5619"/>
<feBlend mode="normal" in="SourceGraphic" in2="effect1_backgroundBlur_1_5619" result="shape"/>
</filter>
<linearGradient id="paint0_linear_1_5619" x1="253.052" y1="229.938" x2="253.052" y2="229.938" gradientUnits="userSpaceOnUse">
<stop stop-color="#74C6B8"/>
<stop offset="1" stop-color="#191A38"/>
</linearGradient>
<linearGradient id="paint1_linear_1_5619" x1="243.098" y1="267.233" x2="243.098" y2="267.233" gradientUnits="userSpaceOnUse">
<stop stop-color="#74C6B8"/>
<stop offset="1" stop-color="#191A38"/>
</linearGradient>
<linearGradient id="paint2_linear_1_5619" x1="245.159" y1="252.436" x2="245.159" y2="252.436" gradientUnits="userSpaceOnUse">
<stop stop-color="#74C6B8"/>
<stop offset="1" stop-color="#191A38"/>
</linearGradient>
<linearGradient id="paint3_linear_1_5619" x1="259.615" y1="242.826" x2="259.615" y2="242.826" gradientUnits="userSpaceOnUse">
<stop stop-color="#74C6B8"/>
<stop offset="1" stop-color="#191A38"/>
</linearGradient>
<linearGradient id="paint4_linear_1_5619" x1="245.1" y1="255.081" x2="245.1" y2="255.081" gradientUnits="userSpaceOnUse">
<stop stop-color="#74C6B8"/>
<stop offset="1" stop-color="#191A38"/>
</linearGradient>
<linearGradient id="paint5_linear_1_5619" x1="345.115" y1="229.632" x2="345.115" y2="229.632" gradientUnits="userSpaceOnUse">
<stop stop-color="#74C6B8"/>
<stop offset="1" stop-color="#191A38"/>
</linearGradient>
<linearGradient id="paint6_linear_1_5619" x1="335.161" y1="266.927" x2="335.161" y2="266.927" gradientUnits="userSpaceOnUse">
<stop stop-color="#74C6B8"/>
<stop offset="1" stop-color="#191A38"/>
</linearGradient>
<linearGradient id="paint7_linear_1_5619" x1="337.226" y1="252.13" x2="337.226" y2="252.13" gradientUnits="userSpaceOnUse">
<stop stop-color="#74C6B8"/>
<stop offset="1" stop-color="#191A38"/>
</linearGradient>
<linearGradient id="paint8_linear_1_5619" x1="351.678" y1="242.52" x2="351.678" y2="242.52" gradientUnits="userSpaceOnUse">
<stop stop-color="#74C6B8"/>
<stop offset="1" stop-color="#191A38"/>
</linearGradient>
<linearGradient id="paint9_linear_1_5619" x1="33.0913" y1="225.656" x2="33.0913" y2="225.656" gradientUnits="userSpaceOnUse">
<stop stop-color="#74C6B8"/>
<stop offset="1" stop-color="#191A38"/>
</linearGradient>
<linearGradient id="paint10_linear_1_5619" x1="43.0447" y1="262.95" x2="43.0447" y2="262.95" gradientUnits="userSpaceOnUse">
<stop stop-color="#74C6B8"/>
<stop offset="1" stop-color="#191A38"/>
</linearGradient>
<linearGradient id="paint11_linear_1_5619" x1="40.9969" y1="248.154" x2="40.9969" y2="248.154" gradientUnits="userSpaceOnUse">
<stop stop-color="#74C6B8"/>
<stop offset="1" stop-color="#191A38"/>
</linearGradient>
<linearGradient id="paint12_linear_1_5619" x1="26.5235" y1="238.545" x2="26.5235" y2="238.545" gradientUnits="userSpaceOnUse">
<stop stop-color="#74C6B8"/>
<stop offset="1" stop-color="#191A38"/>
</linearGradient>
<linearGradient id="paint13_linear_1_5619" x1="170.356" y1="250.044" x2="170.356" y2="250.044" gradientUnits="userSpaceOnUse">
<stop stop-color="#808080" stop-opacity="0.25098"/>
<stop offset="0.54" stop-color="#808080" stop-opacity="0.121569"/>
<stop offset="1" stop-color="#808080" stop-opacity="0.101961"/>
</linearGradient>
<linearGradient id="paint14_linear_1_5619" x1="99.7101" y1="267.806" x2="99.7101" y2="267.806" gradientUnits="userSpaceOnUse">
<stop stop-color="#74C6B8"/>
<stop offset="1" stop-color="#191A38"/>
</linearGradient>
</defs>
</svg>
