<svg width="334" height="233" viewBox="0 0 334 233" fill="none" xmlns="http://www.w3.org/2000/svg">
<path d="M318.453 45.2246H15.5449C6.96313 45.2149 0.00866699 38.2605 -0.000976562 29.6788V15.5459C0.00869751 6.96413 6.96317 0.00968933 15.5449 1.52588e-05L318.453 0C327.035 0.00968933 333.989 6.96414 333.999 15.5459V29.6784C333.989 38.2603 327.035 45.2149 318.453 45.2246ZM15.5449 0.942307C7.48328 0.951462 0.950348 7.48442 0.941254 15.546V29.6786C0.950378 37.7402 7.48331 44.2731 15.5449 44.2823L318.453 44.2823C326.514 44.2731 333.047 37.7402 333.056 29.6786V15.5459C333.047 7.48427 326.514 0.951324 318.453 0.942139L15.5449 0.942307Z" fill="#3F3D56"/>
<path d="M29.6777 22.6118C29.6777 17.6685 33.6851 13.6611 38.6284 13.6611H239.782C244.726 13.6611 248.733 17.6685 248.733 22.6118C248.733 27.5551 244.726 31.5624 239.782 31.5624H38.6284C33.6851 31.5624 29.6777 27.5551 29.6777 22.6118Z" fill="#E6E6E6"/>
<path d="M56.0586 101.115C56.0586 96.1714 60.0659 92.1641 65.0092 92.1641H266.163C271.106 92.1641 275.114 96.1714 275.114 101.115C275.114 106.058 271.106 110.065 266.163 110.065H65.0092C60.0659 110.065 56.0586 106.058 56.0586 101.115Z" fill="#74C6B8"/>
<path d="M56.0586 158.032C56.0586 153.088 60.0659 149.081 65.0092 149.081H266.163C271.106 149.081 275.114 153.088 275.114 158.032C275.114 162.975 271.106 166.982 266.163 166.982H65.0092C60.0659 166.982 56.0586 162.975 56.0586 158.032Z" fill="#E6E6E6"/>
<path d="M56.0586 214.949C56.0586 210.005 60.0659 205.998 65.0092 205.998H266.163C271.106 205.998 275.114 210.005 275.114 214.949C275.114 219.892 271.106 223.899 266.163 223.899H65.0092C60.0659 223.899 56.0586 219.892 56.0586 214.949Z" fill="#E6E6E6"/>
<path d="M304.554 32.2811C304.107 32.9188 303.228 33.0739 302.59 32.6273L294.899 27.2757C294.261 26.8291 294.106 25.95 294.553 25.3122C295 24.6745 295.879 24.5194 296.516 24.966L304.208 30.3176C304.845 30.7642 305 31.6433 304.554 32.2811Z" fill="#74C6B8"/>
<path d="M295.822 26.2011C292.652 30.7288 286.411 31.8292 281.884 28.6589C277.356 25.4887 276.256 19.2484 279.426 14.7207C282.596 10.193 288.836 9.09263 293.364 12.2628C297.886 15.4367 298.986 21.672 295.822 26.2011ZM281.475 16.1558C279.098 19.5515 279.923 24.2318 283.319 26.6095C286.715 28.9871 291.395 28.1618 293.773 24.7661C296.15 21.3703 295.325 16.69 291.929 14.3124C288.532 11.9398 283.856 12.7645 281.475 16.1558Z" fill="#74C6B8"/>
<path d="M309.739 118.604H24.2601C23.9999 118.604 23.7891 118.393 23.7891 118.133C23.7891 117.873 23.9999 117.662 24.2601 117.662H309.739C309.999 117.662 310.21 117.873 310.21 118.133C310.21 118.393 309.999 118.604 309.739 118.604Z" fill="#3F3D56"/>
<path d="M309.739 175.546H24.2602C24 175.546 23.7891 175.335 23.7891 175.075C23.7891 174.814 24 174.604 24.2602 174.604H309.739C309.999 174.604 310.21 174.814 310.21 175.075C310.21 175.335 309.999 175.546 309.739 175.546Z" fill="#3F3D56"/>
<path d="M309.739 232.486H24.2602C24 232.486 23.7891 232.275 23.7891 232.015C23.7891 231.755 24 231.544 24.2602 231.544H309.739C309.999 231.544 310.21 231.755 310.21 232.015C310.21 232.275 309.999 232.486 309.739 232.486Z" fill="#3F3D56"/>
</svg>
