<svg width="319" height="313" viewBox="0 0 319 313" fill="none" xmlns="http://www.w3.org/2000/svg">
<path d="M123.936 186.436C73.2441 174.393 41.801 123.354 53.8443 72.6619C65.8877 21.9698 116.926 -9.47346 167.618 2.5699C197.499 9.70128 222.064 30.8838 233.512 59.3907L232.497 59.7986C221.181 31.6212 196.9 10.6835 167.365 3.63443C117.26 -8.26907 66.8125 22.8103 54.9086 72.9147C43.0048 123.019 74.0842 173.468 124.189 185.372C152.463 192.186 182.296 185.351 204.783 166.908L205.474 167.756C182.723 186.416 152.541 193.331 123.936 186.436Z" fill="#E6E6E6"/>
<path d="M294.61 132.83H218.872C214.766 132.83 211.425 128.189 211.425 122.484V44.671C211.425 38.9666 214.766 34.3252 218.872 34.3252H311.116C315.222 34.3252 318.563 38.9665 318.563 44.671V99.5525C318.563 117.902 307.818 132.83 294.61 132.83Z" fill="#F2F2F2"/>
<path d="M157.426 301.959H163.466L169.336 256.531H155.656L157.426 301.959Z" fill="#A0616A"/>
<path d="M155.456 297.823L165.105 297.247V301.381L174.279 307.717C175.209 308.359 175.614 309.532 175.277 310.611C174.941 311.69 173.942 312.425 172.812 312.424H161.324L159.344 308.335L158.571 312.424H154.239L155.456 297.823Z" fill="#2F2E41"/>
<path d="M67.7432 287.553L73.2535 290.026L97.2083 250.982L84.7277 245.382L67.7432 287.553Z" fill="#A0616A"/>
<path d="M67.6381 282.971L76.6774 286.396L74.9847 290.168L80.7604 299.704C81.3459 300.671 81.235 301.906 80.4863 302.753C79.7377 303.599 78.5254 303.861 77.4943 303.398L67.0134 298.695L66.8812 294.153L64.5015 297.567L60.5498 295.794L67.6381 282.971Z" fill="#2F2E41"/>
<path d="M111.199 157.412L139.137 153.624C139.137 153.624 175.054 236.689 173.55 279.166L150.758 281.977C150.758 281.977 150.932 264.559 152.196 263.227C153.46 261.894 155.02 263.589 153.46 259.778C151.901 255.967 150.649 255.004 152.523 253.146C154.396 251.288 132.231 218.789 132.231 218.789C132.231 218.789 97.3546 262.656 95.483 263.904C93.6113 265.152 91.4846 265.427 92.7039 268.564C93.9232 271.702 91.7385 277.715 91.7385 277.715C91.7385 277.715 77.994 275.63 72.3789 261.904C72.3789 261.904 95.0844 220.541 97.1454 219.854C99.2065 219.168 100.142 222.599 99.2065 219.168C98.2706 215.736 96.3989 216.984 98.2706 215.736C99.5314 214.931 100.896 214.302 102.326 213.864L109.589 194.664C103.989 181.822 104.348 169.392 111.199 157.412Z" fill="#2F2E41"/>
<path d="M110.932 135.432L111.957 144.943L111.354 157.415L138.979 154.133L141.575 135.432L138.268 135.464L110.932 135.432Z" fill="#FFB6B6"/>
<path d="M134.429 104.711L124.032 96.5028L118.575 96.1855L110.477 101.373L108.494 111.49L103.804 122.881L110.683 153.624C110.683 153.624 111.328 155.83 109.637 156.095C107.946 156.36 108.149 159.612 108.149 159.612C108.149 159.612 108.493 162.43 106.852 162.678C105.21 162.927 100.833 162.927 104.663 167.851C108.494 172.776 139.517 154.111 139.517 154.111L143.19 131.061C143.19 131.061 151.724 119.599 142.534 113.035L134.429 104.711Z" fill="#74C6B8"/>
<path d="M89.0421 174.51C88.1147 173.353 87.7476 171.845 88.0394 170.391C88.3313 168.937 89.2522 167.687 90.5543 166.977L103.632 123.089L111.809 127.206L97.5676 169.272C98.6384 171.589 97.8067 174.341 95.6316 175.678C93.4566 177.014 90.6255 176.513 89.0421 174.51Z" fill="#A0616A"/>
<path d="M112.354 100.967C112.354 100.967 110.017 99.7246 108.418 105.1C107.138 109.404 96.7513 135.039 96.6189 141.272C94.8607 141.645 93.578 143.161 93.502 144.957L106.344 146.678C108.588 144.785 109.177 142.228 108.309 141.47L111.097 133.854L122.73 109.625L114.06 101.835L112.354 100.967Z" fill="#74C6B8"/>
<path d="M180.974 160.084C181.31 158.64 180.988 157.121 180.096 155.936C179.205 154.751 177.834 154.022 176.353 153.946L146.353 119.684L139.989 127.277L171.022 159.048C171.058 161.6 172.998 163.722 175.538 163.987C178.077 164.251 180.412 162.575 180.974 160.084Z" fill="#A0616A"/>
<path d="M128.151 103.854C128.151 103.854 129.721 101.723 133.488 105.879C136.503 109.206 156.954 127.828 159.769 133.391C161.515 132.966 163.328 133.779 164.173 135.365L153.338 142.47C150.496 141.734 148.859 139.684 149.314 138.624L143.507 132.963L122.54 116.147L126.988 105.374L128.151 103.854Z" fill="#74C6B8"/>
<path d="M133.473 96.9116C134.677 95.1825 124.275 91.0949 122.261 91.8719C118.13 93.4752 113.249 96.9007 109.451 97.3877C109.524 95.8807 109.389 94.371 109.051 92.9006C108.641 94.3945 108.236 95.8938 107.826 97.3931C104.242 96.8842 98.2716 90.876 99.7381 77.0154C100.345 71.3081 104.532 65.2396 118.212 62.9906C130.841 60.9222 133.922 70.2958 135.104 76.4189C137.796 90.3233 136.466 96.6982 133.473 96.9116Z" fill="#2F2E41"/>
<circle cx="121.717" cy="80.5764" r="11.3166" fill="#A0616A"/>
<path d="M136.949 76.538L131.528 77.3664C129.137 75.8691 128.227 73.6473 128.113 71.0356L128.658 77.805L126.067 78.2009C124.376 77.0727 123.62 75.8509 124.075 74.508L124.393 78.4568C117.487 80.9451 110.793 82.7801 105.141 81.3989C103.917 73.386 109.42 65.8976 117.433 64.673L120.223 64.2467C128.236 63.0221 135.724 68.5252 136.949 76.538Z" fill="#2F2E41"/>
<path d="M37.4815 301.972C36.837 302.002 36.2426 301.626 35.9937 301.03C35.7448 300.435 35.8944 299.748 36.3682 299.31L36.4734 298.891C36.4596 298.858 36.4456 298.824 36.4316 298.791C35.7835 297.26 34.2798 296.268 32.6173 296.274C30.9549 296.28 29.4586 297.283 28.8218 298.819C27.5773 301.817 25.9926 304.819 25.6025 307.989C25.4306 309.39 25.5031 310.81 25.8167 312.186C22.8934 305.809 21.3755 298.879 21.3657 291.864C21.3651 290.104 21.4629 288.345 21.6587 286.595C21.8204 285.161 22.0449 283.737 22.332 282.323C23.899 274.653 27.263 267.463 32.148 261.345C34.5123 260.055 36.4243 258.072 37.6265 255.661C38.062 254.795 38.3697 253.87 38.5403 252.916C38.2736 252.951 37.5346 248.889 37.7358 248.639C37.3641 248.075 36.6988 247.795 36.293 247.245C34.2741 244.508 31.4926 244.985 30.0406 248.705C26.9387 250.271 26.9086 252.867 28.8119 255.364C30.0229 256.953 30.1893 259.102 31.2517 260.803C31.1424 260.943 31.0287 261.079 30.9194 261.219C28.9213 263.788 27.1798 266.547 25.7198 269.456C26.0748 266.197 25.6511 262.9 24.4833 259.837C23.2999 256.982 21.0818 254.577 19.1284 252.109C16.7821 249.145 11.9709 250.439 11.5575 254.197C11.5535 254.233 11.5496 254.269 11.5457 254.306C11.8359 254.469 12.1199 254.643 12.3978 254.827C13.1123 255.304 13.4605 256.171 13.2746 257.01C13.0887 257.849 12.4069 258.488 11.5576 258.619L11.5152 258.626C11.6185 259.671 11.8012 260.708 12.0617 261.726C9.55578 271.416 14.9658 274.946 22.6907 275.105C22.8612 275.192 23.0273 275.28 23.1979 275.363C21.731 279.519 20.811 283.849 20.4608 288.243C20.2625 290.836 20.2743 293.44 20.4958 296.03L20.4827 295.939C19.9231 293.058 18.3863 290.459 16.1323 288.58C12.7843 285.83 8.05441 284.817 4.44265 282.607C3.65887 282.103 2.65435 282.101 1.86819 282.6C1.08203 283.1 0.657251 284.01 0.779566 284.933C0.784388 284.965 0.789301 284.998 0.794336 285.03C1.33276 285.249 1.85696 285.502 2.36398 285.786C2.65408 285.95 2.93807 286.124 3.21597 286.307C3.93048 286.785 4.27868 287.652 4.0928 288.491C3.90692 289.33 3.22509 289.969 2.37585 290.099L2.33331 290.106C2.30273 290.11 2.27648 290.115 2.2459 290.119C3.16589 292.316 4.45706 294.338 6.06289 296.096C7.62979 304.556 14.3596 305.359 21.5583 302.895H21.5626C22.3525 306.327 23.4969 309.668 24.9774 312.864H37.1761C37.2199 312.728 37.2592 312.588 37.2986 312.453C36.1695 312.524 35.0359 312.456 33.9231 312.252C34.8282 311.141 35.7333 310.022 36.6383 308.911C36.6585 308.89 36.6775 308.869 36.6952 308.846C37.1543 308.277 37.6177 307.713 38.0768 307.145C38.1013 305.403 37.9009 303.663 37.4815 301.972Z" fill="#F2F2F2"/>
<path d="M283.483 162.242H181.192C177.081 162.237 173.75 158.906 173.745 154.795V59.734C173.75 55.6232 177.081 52.2919 181.192 52.2871L283.483 52.2871C287.594 52.2919 290.926 55.6232 290.93 59.734V154.795C290.926 158.906 287.594 162.237 283.483 162.242Z" fill="#E6E6E6"/>
<path d="M261.954 157.22H186.216C182.106 157.215 178.774 153.884 178.77 149.773V64.7613C178.774 60.6505 182.106 57.3192 186.216 57.3145L278.46 57.3145C282.571 57.3192 285.902 60.6505 285.907 64.7613V133.266C285.892 146.489 275.177 157.205 261.954 157.22Z" fill="white"/>
<path d="M221.703 85.6794C221.705 91.7251 216.805 96.6274 210.759 96.6289C204.713 96.6304 199.811 91.7305 199.81 85.6848C199.808 79.6391 204.708 74.7369 210.754 74.7354C213.658 74.7315 216.444 75.8831 218.498 77.9362C220.552 79.9893 221.706 82.7751 221.703 85.6794Z" fill="#74C6B8"/>
<path d="M199.85 108.864C199.85 106.966 201.388 105.427 203.287 105.427H228.558C230.456 105.427 231.995 106.966 231.995 108.864C231.995 110.762 230.456 112.301 228.558 112.301H203.287C201.388 112.301 199.85 110.762 199.85 108.864Z" fill="#3F3D56"/>
<path d="M199.94 122.612C199.94 120.714 201.479 119.175 203.377 119.175H261.3C263.198 119.175 264.737 120.714 264.737 122.612C264.737 124.51 263.198 126.049 261.3 126.049H203.377C201.479 126.049 199.94 124.51 199.94 122.612Z" fill="#3F3D56"/>
<path d="M199.94 136.36C199.94 134.462 201.479 132.923 203.377 132.923H261.3C263.198 132.923 264.737 134.462 264.737 136.36C264.737 138.258 263.198 139.797 261.3 139.797H203.377C201.479 139.797 199.94 138.258 199.94 136.36Z" fill="#3F3D56"/>
<circle cx="210.997" cy="83.4349" r="3.83041" fill="white"/>
<path d="M215.104 88.6338H206.896C205.838 88.6349 204.982 89.4917 204.98 90.549C205.097 92.1893 205.354 93.8167 205.747 95.4136C209.093 97.1379 213.091 97.0201 216.329 95.1017C216.681 93.605 216.911 92.0826 217.019 90.549C217.018 89.4917 216.161 88.6349 215.104 88.6338Z" fill="white"/>
<path d="M273.567 75.8146C269.572 75.8146 266.334 72.5762 266.334 68.5815C266.334 64.5869 269.572 61.3486 273.567 61.3486C277.562 61.3486 280.8 64.5869 280.8 68.5816C280.8 72.5762 277.562 75.8145 273.567 75.8146Z" fill="#E6E6E6"/>
<path d="M276.089 70.0957L274.576 68.5822L276.089 67.0686C276.368 66.79 276.368 66.3382 276.089 66.0596C275.81 65.7809 275.359 65.7809 275.08 66.0596L273.567 67.5731L272.053 66.0596C271.774 65.7809 271.323 65.7809 271.044 66.0596C270.765 66.3382 270.765 66.79 271.044 67.0686L272.558 68.5822L271.044 70.0957C270.765 70.3743 270.765 70.8261 271.044 71.1047C271.323 71.3834 271.774 71.3834 272.053 71.1047L273.567 69.5912L275.08 71.1047C275.359 71.3833 275.81 71.3833 276.089 71.1047C276.368 70.826 276.368 70.3744 276.089 70.0957Z" fill="white"/>
</svg>
