<svg width="44" height="44" viewBox="0 0 44 44" fill="none" xmlns="http://www.w3.org/2000/svg">
<rect width="44" height="44" rx="10" fill="#E0FFF0"/>
<path d="M26.669 12C30.07 12 31.99 13.929 32 17.33V26.67C32 30.07 30.07 32 26.669 32H17.33C13.929 32 12 30.07 12 26.67V17.33C12 13.929 13.929 12 17.33 12H26.669ZM22.5 16.13C22.219 15.96 21.879 15.96 21.61 16.13C21.339 16.299 21.19 16.61 21.219 16.92V27.11C21.27 27.54 21.629 27.86 22.049 27.86C22.48 27.86 22.839 27.54 22.879 27.11V16.92C22.919 16.61 22.77 16.299 22.5 16.13ZM17.83 19.41C17.56 19.24 17.219 19.24 16.95 19.41C16.679 19.58 16.53 19.889 16.56 20.2V27.11C16.599 27.54 16.959 27.86 17.389 27.86C17.82 27.86 18.179 27.54 18.219 27.11V20.2C18.25 19.889 18.099 19.58 17.83 19.41ZM27.089 23.04C26.82 22.87 26.48 22.87 26.2 23.04C25.929 23.21 25.78 23.509 25.82 23.83V27.11C25.86 27.54 26.219 27.86 26.65 27.86C27.07 27.86 27.429 27.54 27.48 27.11V23.83C27.509 23.509 27.36 23.21 27.089 23.04Z" fill="#5EDE99"/>
</svg>
