<svg width="44" height="44" viewBox="0 0 44 44" fill="none" xmlns="http://www.w3.org/2000/svg">
<rect width="44" height="44" rx="10" fill="#E0FFF0"/>
<path d="M26.34 12C29.73 12 32 14.38 32 17.92V26.091C32 29.62 29.73 32 26.34 32H17.67C14.28 32 12 29.62 12 26.091V17.92C12 14.38 14.28 12 17.67 12H26.34ZM26.18 19C25.84 18.66 25.28 18.66 24.94 19L20.81 23.13L19.06 21.38C18.72 21.04 18.16 21.04 17.82 21.38C17.48 21.72 17.48 22.27 17.82 22.62L20.2 24.99C20.37 25.16 20.59 25.24 20.81 25.24C21.04 25.24 21.26 25.16 21.43 24.99L26.18 20.24C26.52 19.9 26.52 19.35 26.18 19Z" fill="#5EDE99"/>
</svg>
