<svg width="44" height="44" viewBox="0 0 44 44" fill="none" xmlns="http://www.w3.org/2000/svg">
<rect width="44" height="44" rx="10" fill="#FFE0E0"/>
<g clip-path="url(#clip0_4180_1427)">
<path d="M26.34 12C29.73 12 32 14.38 32 17.92V26.091C32 29.621 29.73 32 26.34 32H17.67C14.28 32 12 29.621 12 26.091V17.92C12 14.38 14.28 12 17.67 12H26.34ZM25.01 18.971C24.67 18.63 24.12 18.63 23.77 18.971L22 20.75L20.22 18.971C19.87 18.63 19.32 18.63 18.98 18.971C18.64 19.311 18.64 19.871 18.98 20.21L20.76 21.991L18.98 23.761C18.64 24.111 18.64 24.661 18.98 25C19.15 25.17 19.38 25.261 19.6 25.261C19.83 25.261 20.05 25.17 20.22 25L22 23.231L23.78 25C23.95 25.181 24.17 25.261 24.39 25.261C24.62 25.261 24.84 25.17 25.01 25C25.35 24.661 25.35 24.111 25.01 23.771L23.23 21.991L25.01 20.21C25.35 19.871 25.35 19.311 25.01 18.971Z" fill="#F26666"/>
</g>
<defs>
<clipPath id="clip0_4180_1427">
<rect width="20" height="20" fill="white" transform="translate(12 12)"/>
</clipPath>
</defs>
</svg>
