<svg width="44" height="44" viewBox="0 0 44 44" fill="none" xmlns="http://www.w3.org/2000/svg">
<rect width="44" height="44" rx="10" fill="#FFFCE0"/>
<path d="M22 12C27.53 12 32 16.48 32 22C32 27.53 27.53 32 22 32C16.48 32 12 27.53 12 22C12 16.48 16.48 12 22 12ZM21.65 16.93C21.24 16.93 20.9 17.26 20.9 17.68V22.73C20.9 22.99 21.04 23.23 21.27 23.37L25.19 25.71C25.31 25.78 25.44 25.82 25.58 25.82C25.83 25.82 26.08 25.69 26.22 25.45C26.43 25.1 26.32 24.64 25.96 24.42L22.4 22.3V17.68C22.4 17.26 22.06 16.93 21.65 16.93Z" fill="#EFBE24"/>
</svg>
