<svg width="24" height="25" viewBox="0 0 24 25" fill="none" xmlns="http://www.w3.org/2000/svg">
<path d="M15.2742 3.71973C14.2581 3.71973 13.4314 4.54646 13.4314 5.56267V6.09696C13.4314 6.35585 13.6413 6.56576 13.9002 6.56576C14.1591 6.56576 14.369 6.35585 14.369 6.09696V5.56267C14.369 5.0635 14.7751 4.65737 15.2742 4.65737C15.7734 4.65737 16.1795 5.0635 16.1795 5.56267V6.09696C16.1795 6.27471 15.9715 6.52291 15.7704 6.76301C15.4576 7.13637 15.103 7.55956 15.103 8.13294V9.44469C15.103 9.70358 15.3129 9.91349 15.5718 9.91349C15.8307 9.91349 16.0406 9.70359 16.0406 9.44469V8.13294C16.0406 7.90039 16.2584 7.64042 16.4891 7.36517C16.7834 7.01379 17.1171 6.61554 17.1171 6.09696V5.56267C17.1172 4.54651 16.2905 3.71973 15.2742 3.71973Z" fill="white"/>
<path d="M15.5748 11.0791C15.3159 11.0791 15.106 11.289 15.106 11.5479V11.5492C15.106 11.8081 15.3159 12.0174 15.5748 12.0174C15.8336 12.0174 16.0436 11.8068 16.0436 11.5479C16.0436 11.289 15.8337 11.0791 15.5748 11.0791Z" fill="white"/>
<path d="M19.4273 3.74316C19.1684 3.74316 18.9585 3.95307 18.9585 4.21196V9.44558C18.9585 9.70447 19.1684 9.91438 19.4273 9.91438C19.6862 9.91438 19.8961 9.70448 19.8961 9.44558V4.21196C19.8961 3.95307 19.6862 3.74316 19.4273 3.74316Z" fill="white"/>
<path d="M19.4273 11.0762C19.1684 11.0762 18.9585 11.2861 18.9585 11.545V11.549C18.9585 11.8078 19.1684 12.0158 19.4273 12.0158C19.6862 12.0158 19.8961 11.8039 19.8961 11.545C19.8961 11.2861 19.6862 11.0762 19.4273 11.0762Z" fill="white"/>
<path d="M13.793 16.9482C13.7827 16.9379 13.772 16.928 13.7607 16.9186C13.047 16.3233 12.0476 16.3355 11.4359 16.9471C11.4359 16.9471 9.70236 18.6812 9.28986 19.0934L9.24707 19.1362C7.65429 18.1728 6.36227 16.8893 5.38464 15.2996L6.94371 13.7404L7.58764 13.0977C8.19823 12.4854 8.21033 11.4861 7.61567 10.7733C7.60634 10.7621 7.5965 10.7513 7.58609 10.741L4.72886 7.90201C4.24206 7.41886 3.78235 7.37208 3.48244 7.41816C3.00568 7.49119 2.57771 7.84519 2.27733 8.4152L0.819556 11.1861C0.450227 11.8879 0.0233807 12.8332 0.00092748 13.9221C-0.0257914 15.2158 0.524899 16.4361 1.63739 17.5486L2.8201 18.7341C2.91164 18.8259 3.03179 18.8718 3.15197 18.8718C3.27179 18.8718 3.3916 18.8261 3.4831 18.7349C3.66643 18.552 3.66676 18.2552 3.4839 18.0719L2.30081 16.886C0.325586 14.9107 0.863057 13.1169 1.64934 11.6228L2.51663 9.97427L5.94963 13.4085L4.90759 14.4506C4.78787 14.217 4.67369 13.9781 4.56601 13.733C4.46186 13.4959 4.18515 13.3881 3.94824 13.4923C3.7112 13.5965 3.60338 13.8731 3.70754 14.1101C3.91074 14.5727 4.13434 15.0159 4.37739 15.4403C4.38081 15.447 4.38475 15.4536 4.38854 15.4602C5.76274 17.8508 7.76693 19.6322 10.3638 20.7663C10.4249 20.7929 10.4886 20.8056 10.5512 20.8056C10.7319 20.8056 10.9042 20.7004 10.9811 20.5242C11.0847 20.287 10.9763 20.0106 10.7391 19.907C10.522 19.8122 10.3101 19.7119 10.102 19.6074C10.405 19.3046 10.7938 18.916 11.1257 18.5838L14.5577 22.017L12.9097 22.8841C11.4167 23.6707 9.62408 24.2086 7.64825 22.2336L6.46151 21.0482C6.27822 20.8652 5.98146 20.8653 5.79845 21.0485C5.6155 21.2317 5.61564 21.5286 5.79883 21.7116L6.98548 22.897C8.07237 23.9834 9.26155 24.5337 10.5216 24.5337C10.5517 24.5337 10.5818 24.5333 10.612 24.5327C11.7011 24.51 12.6455 24.0831 13.3464 23.7139L16.117 22.2562C16.6873 21.9566 17.0418 21.5287 17.1151 21.0511C17.1612 20.7511 17.1147 20.2914 16.6316 19.8056L13.793 16.9482ZM2.97375 9.10539L3.10697 8.85212C3.25824 8.56506 3.45652 8.37076 3.62448 8.34503C3.78169 8.32126 3.9526 8.45275 4.06815 8.5674L6.90818 11.3892C7.14462 11.6845 7.22505 12.1334 6.92449 12.4348L6.61286 12.7459L2.97375 9.10539ZM16.1883 20.9088C16.1625 21.077 15.9681 21.2753 15.6806 21.4262L15.4264 21.56L11.7884 17.9206L12.0989 17.6101C12.4003 17.3088 12.8491 17.3895 13.1447 17.6261L15.9665 20.4666C16.081 20.5817 16.2124 20.7519 16.1883 20.9088Z" fill="white"/>
<path d="M21.8518 2.68135C18.9877 -0.182822 14.3265 -0.182868 11.4611 2.68135C10.3242 3.81831 9.60519 5.25888 9.38183 6.84734C9.17521 8.31641 9.42393 9.83971 10.0826 11.1602L8.79753 15.1463C8.74353 15.3138 8.78788 15.4973 8.91233 15.6217C9.00163 15.711 9.12139 15.7589 9.24378 15.7589C9.29193 15.7589 9.34054 15.7515 9.38779 15.7363L13.3721 14.45C14.6931 15.1091 16.2166 15.3583 17.6854 15.1517C19.2735 14.9283 20.7142 14.209 21.8518 13.0713C24.7161 10.2067 24.7161 5.54589 21.8518 2.68135ZM21.1887 12.4082C19.1768 14.4203 16.1411 14.8712 13.6351 13.5304C13.5227 13.4704 13.3909 13.4586 13.2699 13.4977L9.97082 14.5627L11.0348 11.2622C11.0738 11.1412 11.062 11.0095 11.0021 10.8974C9.68291 8.43022 10.1443 5.32431 12.124 3.3444C13.3741 2.09494 15.0153 1.47037 16.6569 1.47037C18.2981 1.47037 19.9396 2.09513 21.1888 3.34435C23.6875 5.84327 23.6875 9.90937 21.1887 12.4082Z" fill="white"/>
<path d="M4.30895 19.5592C4.12586 19.7423 4.12586 20.0391 4.30895 20.2222L4.31026 20.2235C4.40167 20.3149 4.5212 20.3605 4.64083 20.3605C4.76083 20.3605 4.88092 20.3145 4.97261 20.2228C5.15571 20.0397 5.15505 19.7422 4.97196 19.5592C4.78881 19.3761 4.49205 19.3761 4.30895 19.5592Z" fill="white"/>
</svg>
