<svg width="17" height="19" viewBox="0 0 17 19" fill="none" xmlns="http://www.w3.org/2000/svg">
<path d="M7.4237 0.327148H1.15278C0.821142 0.327148 0.549805 0.632896 0.549805 1.00659V8.07274C0.549805 8.44643 0.821142 8.75218 1.15278 8.75218H7.4237C7.75533 8.75218 8.02667 8.44643 8.02667 8.07274V1.00659C8.02667 0.632896 7.75533 0.327148 7.4237 0.327148ZM6.82072 7.3933H1.75575V1.68602H6.82072V7.3933Z" fill="black"/>
<path d="M16.2272 0.327148H9.95624C9.62461 0.327148 9.35327 0.632896 9.35327 1.00659V8.07274C9.35327 8.44643 9.62461 8.75218 9.95624 8.75218H16.2272C16.5588 8.75218 16.8301 8.44643 16.8301 8.07274V1.00659C16.8301 0.632896 16.5588 0.327148 16.2272 0.327148ZM15.6242 7.3933H10.5592V1.68602H15.6242V7.3933Z" fill="black"/>
<path d="M7.4237 10.2471H1.15278C0.821142 10.2471 0.549805 10.5528 0.549805 10.9265V17.9927C0.549805 18.3664 0.821142 18.6721 1.15278 18.6721H7.4237C7.75533 18.6721 8.02667 18.3664 8.02667 17.9927V10.9265C8.02667 10.5528 7.75533 10.2471 7.4237 10.2471ZM6.82072 17.3132H1.75575V11.6059H6.82072V17.3132Z" fill="black"/>
<path d="M16.2272 10.2471H9.95624C9.62461 10.2471 9.35327 10.5528 9.35327 10.9265V17.9927C9.35327 18.3664 9.62461 18.6721 9.95624 18.6721H16.2272C16.5588 18.6721 16.8301 18.3664 16.8301 17.9927V10.9265C16.8301 10.5528 16.5588 10.2471 16.2272 10.2471ZM15.6242 17.3132H10.5592V11.6059H15.6242V17.3132Z" fill="black"/>
</svg>
