<svg width="32" height="16" viewBox="0 0 32 16" fill="none" xmlns="http://www.w3.org/2000/svg">
<path d="M8.29012 7.09035C8.1294 6.53472 7.93195 5.5658 7.93195 5.5658H7.90899C7.90899 5.5658 7.71153 6.53472 7.55081 7.09035L7.0411 8.81236H8.79065L8.29012 7.09035ZM29.5925 0.652344H16.7348V15.3468H29.5925C30.2032 15.3468 30.6946 14.8555 30.6946 14.2447V1.75443C30.6946 1.14369 30.2032 0.652344 29.5925 0.652344ZM28.4904 6.16277C28.4904 6.46584 28.2424 6.71381 27.9394 6.71381H27.4159C27.099 7.79752 26.4194 8.89042 25.4551 9.92363C25.8408 10.2175 26.2403 10.4976 26.6536 10.7502C26.9062 10.9063 26.9888 11.2324 26.8419 11.4941L26.4791 12.1324C26.323 12.4033 25.9786 12.4906 25.7122 12.3298C25.1336 11.9717 24.5872 11.5905 24.0867 11.1864C23.5861 11.5859 23.0443 11.9717 22.4611 12.3298C22.1948 12.4906 21.8504 12.4033 21.6942 12.1324L21.3315 11.4941C21.1845 11.2369 21.2672 10.9063 21.5243 10.7502C21.9514 10.4884 22.3509 10.2129 22.7228 9.92363C22.3601 9.5379 22.0386 9.14299 21.7585 8.74348C21.5748 8.48173 21.6575 8.11897 21.9284 7.95825L22.2269 7.77916L22.5621 7.5817C22.8101 7.43475 23.1315 7.50363 23.2968 7.73783C23.5264 8.05927 23.7928 8.38071 24.0958 8.69756C24.7158 8.04549 25.1887 7.37047 25.4735 6.71381H20.2248C19.9217 6.71381 19.6737 6.46584 19.6737 6.16277V5.42804C19.6737 5.12497 19.9217 4.877 20.2248 4.877H23.1637V4.14228C23.1637 3.83921 23.4116 3.59124 23.7147 3.59124H24.4494C24.7525 3.59124 25.0005 3.83921 25.0005 4.14228V4.877H27.9394C28.2424 4.877 28.4904 5.12497 28.4904 5.42804V6.16277ZM1.30566 1.75443V14.2447C1.30566 14.8555 1.79701 15.3468 2.40775 15.3468H15.2654V0.652344H2.40775C1.79701 0.652344 1.30566 1.14369 1.30566 1.75443ZM4.01036 11.6778L6.65077 3.91268C6.72884 3.68767 6.93548 3.54072 7.17426 3.54072H8.66667C8.90086 3.54072 9.11209 3.69226 9.19016 3.91268L11.8306 11.6778C11.95 12.036 11.6882 12.4079 11.3071 12.4079H10.2555C10.0114 12.4077 9.79657 12.2471 9.72742 12.013L9.29577 10.5481H6.53138L6.11351 12.0084C6.04463 12.2426 5.8288 12.4079 5.58542 12.4079H4.53385C4.15731 12.4079 3.89097 12.036 4.01036 11.6778Z" stroke="white"/>
</svg>
