<svg width="11" height="13" viewBox="0 0 11 13" fill="none" xmlns="http://www.w3.org/2000/svg">
<path d="M8.25 8C7.72013 8 7.23312 8.18326 6.84867 8.48973L4.44666 6.98846C4.51779 6.6667 4.51779 6.33328 4.44666 6.01152L6.84867 4.51025C7.23312 4.81674 7.72013 5 8.25 5C9.49263 5 10.5 3.99263 10.5 2.75C10.5 1.50737 9.49263 0.5 8.25 0.5C7.00737 0.5 6 1.50737 6 2.75C6 2.91777 6.01852 3.08117 6.05334 3.23846L3.65133 4.73973C3.26688 4.43326 2.77988 4.25 2.25 4.25C1.00737 4.25 0 5.25737 0 6.5C0 7.74263 1.00737 8.75 2.25 8.75C2.77988 8.75 3.26688 8.56674 3.65133 8.26027L6.05334 9.76154C6.01784 9.92193 5.99995 10.0857 6 10.25C6 11.4926 7.00737 12.5 8.25 12.5C9.49263 12.5 10.5 11.4926 10.5 10.25C10.5 9.00737 9.49263 8 8.25 8Z" fill="#FF7A45"/>
</svg>
