<svg width="17" height="19" viewBox="0 0 17 19" fill="none" xmlns="http://www.w3.org/2000/svg">
<path d="M2.65662 0.655273C1.43932 0.655273 0.448975 1.77121 0.448975 3.14288C0.448975 4.51455 1.43932 5.63049 2.65662 5.63049C3.87393 5.63049 4.86427 4.51455 4.86427 3.14288C4.86427 1.77121 3.87393 0.655273 2.65662 0.655273ZM2.65662 4.52489C1.98035 4.52489 1.43015 3.90492 1.43015 3.14288C1.43015 2.38084 1.98035 1.76088 2.65662 1.76088C3.3329 1.76088 3.88309 2.38084 3.88309 3.14288C3.88309 3.90492 3.3329 4.52489 2.65662 4.52489Z" fill="black"/>
<path d="M2.65662 7.0127C1.43932 7.0127 0.448975 8.12863 0.448975 9.5003C0.448975 10.872 1.43932 11.9879 2.65662 11.9879C3.87393 11.9879 4.86427 10.872 4.86427 9.5003C4.86427 8.12863 3.87393 7.0127 2.65662 7.0127ZM2.65662 10.8823C1.98035 10.8823 1.43015 10.2623 1.43015 9.5003C1.43015 8.73827 1.98035 8.1183 2.65662 8.1183C3.3329 8.1183 3.88309 8.73827 3.88309 9.5003C3.88309 10.2623 3.3329 10.8823 2.65662 10.8823Z" fill="black"/>
<path d="M2.65662 13.3701C1.43932 13.3701 0.448975 14.4861 0.448975 15.8577C0.448975 17.2294 1.43932 18.3453 2.65662 18.3453C3.87393 18.3453 4.86427 17.2294 4.86427 15.8577C4.86427 14.4861 3.87393 13.3701 2.65662 13.3701ZM2.65662 17.2397C1.98035 17.2397 1.43015 16.6198 1.43015 15.8577C1.43015 15.0957 1.98035 14.4757 2.65662 14.4757C3.3329 14.4757 3.88309 15.0957 3.88309 15.8577C3.88309 16.6198 3.3329 17.2397 2.65662 17.2397Z" fill="black"/>
<path d="M8.05311 5.63049H13.9402C15.1575 5.63049 16.1478 4.51455 16.1478 3.14288C16.1478 1.77121 15.1575 0.655273 13.9402 0.655273H8.05311C6.8358 0.655273 5.84546 1.77121 5.84546 3.14288C5.84546 4.51455 6.8358 5.63049 8.05311 5.63049ZM8.05311 1.76088H13.9402C14.6164 1.76088 15.1666 2.38084 15.1666 3.14288C15.1666 3.90492 14.6164 4.52489 13.9402 4.52489H8.05311C7.37683 4.52489 6.82664 3.90492 6.82664 3.14288C6.82664 2.38084 7.37683 1.76088 8.05311 1.76088Z" fill="black"/>
<path d="M13.9402 7.0127H8.05311C6.8358 7.0127 5.84546 8.12863 5.84546 9.5003C5.84546 10.872 6.8358 11.9879 8.05311 11.9879H13.9402C15.1575 11.9879 16.1478 10.872 16.1478 9.5003C16.1478 8.12863 15.1575 7.0127 13.9402 7.0127ZM13.9402 10.8823H8.05311C7.37683 10.8823 6.82664 10.2623 6.82664 9.5003C6.82664 8.73827 7.37683 8.1183 8.05311 8.1183H13.9402C14.6164 8.1183 15.1666 8.73827 15.1666 9.5003C15.1666 10.2623 14.6164 10.8823 13.9402 10.8823Z" fill="black"/>
<path d="M13.9402 13.3701H8.05311C6.8358 13.3701 5.84546 14.4861 5.84546 15.8577C5.84546 17.2294 6.8358 18.3453 8.05311 18.3453H13.9402C15.1575 18.3453 16.1478 17.2294 16.1478 15.8577C16.1478 14.4861 15.1575 13.3701 13.9402 13.3701ZM13.9402 17.2397H8.05311C7.37683 17.2397 6.82664 16.6198 6.82664 15.8577C6.82664 15.0957 7.37683 14.4757 8.05311 14.4757H13.9402C14.6164 14.4757 15.1666 15.0957 15.1666 15.8577C15.1666 16.6198 14.6164 17.2397 13.9402 17.2397Z" fill="black"/>
</svg>
